<svg width="355" height="341" viewBox="0 0 355 341" fill="none" xmlns="http://www.w3.org/2000/svg">
<path d="M92.9234 135.537L119.987 249.016C121.487 255.253 123.035 260.079 126.195 264.735C127.381 266.686 129.067 268.284 131.078 269.363C133.224 270.343 135.627 270.61 137.935 270.125C139.678 269.601 141.241 268.604 142.451 267.246C144.738 264.629 147.179 262.151 149.761 259.824C150.994 258.687 152.536 257.941 154.192 257.679C156.471 257.468 158.759 257.971 160.739 259.118C162.402 259.972 163.856 260.794 165.462 261.718C168.947 263.726 171.795 265.49 175.81 266.426C180.269 267.47 185.01 267.132 189.525 266.539C192.986 266.098 196.362 265.147 199.545 263.717C203.185 262.23 206.515 260.076 209.365 257.367C214.219 252.344 217.013 246.982 220.118 239.446C221.232 236.646 222.175 233.781 222.941 230.867L260.559 91.6219C261.942 86.4569 260.277 76.8339 252.659 74.5219C252.066 74.3529 250.091 73.7319 248.172 73.3649L234.654 70.7649C231.808 70.1131 228.908 69.7258 225.99 69.608C223.372 69.6628 220.772 70.0611 218.257 70.7929C215.686 71.467 213.244 72.5636 211.032 74.0379C208.351 75.7029 204.541 78.5249 202.425 81.6009C202.425 81.6009 173.978 120.011 155.013 145.974C153.376 148.232 150.131 151.788 147.393 153.368C141.128 156.952 126.538 157.432 117.704 150.207C113.697 146.907 111.128 140.696 110.395 137.62C108.334 129.125 107.009 122.634 106.67 119.869C106.303 116.769 106.02 110.584 106.782 107.569C107.258 105.627 108.408 103.916 110.027 102.743C111.172 102.103 112.459 101.76 113.77 101.746C115.081 101.731 116.375 102.044 117.534 102.658C122.501 105.593 122.672 106.609 126.002 108.838C128.231 110.338 131.363 110.475 133.987 109.938C136.197 109.399 138.2 108.221 139.744 106.551C141.008 105.279 141.907 103.69 142.344 101.951C142.825 99.8398 142.737 97.6391 142.09 95.5729C141.341 93.5378 140.2 91.6692 138.732 90.0729C133.906 85.3319 132.381 83.7799 128.487 79.6589C124.564 75.5389 120.303 67.4669 119.372 62.1049L117.65 52.3119C117.18 50.4399 117.189 48.4792 117.678 46.6119C118.008 45.3806 118.744 44.2969 119.766 43.5359C120.855 42.6845 122.228 42.2807 123.605 42.4069C125.714 42.8456 127.591 44.0398 128.881 45.7649L142.061 61.2869C145.447 65.2659 149.145 68.2299 153.774 69.6119C164.921 72.9119 177.959 68.1119 184.673 57.3359L205.754 23.4978C207.137 21.2688 207.786 18.6159 206.798 16.2729C205.816 14.3879 204.238 12.88 202.311 11.983C202.311 11.983 196.639 9.41492 194.07 8.42692C189.752 6.73392 185.999 5.29386 181.37 3.88286C179.283 3.30973 177.129 3.01551 174.964 3.00786C172.666 2.98407 170.37 3.17296 168.107 3.57194C162.529 4.34574 157.006 5.46717 151.568 6.92985C147.702 8.05885 144.006 9.80892 140.337 11.2759C136.858 12.6932 133.465 14.3141 130.176 16.1299C127.881 17.3128 125.675 18.6617 123.576 20.1659C120.241 22.577 117.218 25.3924 114.576 28.5479C110.991 33.1984 108.293 38.4698 106.618 44.0979C101.482 64.7279 96.7972 84.0879 94.9342 92.3569C93.4672 98.9039 91.4635 107.343 91.0685 114.003C90.5804 121.234 91.2086 128.496 92.9312 135.536L92.9234 135.537Z" stroke="#002E12" stroke-width="6" stroke-miterlimit="10"/>
<path d="M244.717 264.822C244.369 264.822 244.061 264.891 243.791 265.027C243.525 265.16 243.301 265.354 243.117 265.607C242.938 265.861 242.801 266.168 242.707 266.527C242.613 266.887 242.566 267.291 242.566 267.74C242.566 268.346 242.641 268.863 242.789 269.293C242.941 269.719 243.176 270.045 243.492 270.271C243.809 270.494 244.217 270.605 244.717 270.605C245.064 270.605 245.412 270.566 245.76 270.488C246.111 270.41 246.492 270.299 246.902 270.154V271.678C246.523 271.834 246.15 271.945 245.783 272.012C245.416 272.082 245.004 272.117 244.547 272.117C243.664 272.117 242.938 271.936 242.367 271.572C241.801 271.205 241.381 270.693 241.107 270.037C240.834 269.377 240.697 268.607 240.697 267.729C240.697 267.08 240.785 266.486 240.961 265.947C241.137 265.408 241.395 264.941 241.734 264.547C242.074 264.152 242.494 263.848 242.994 263.633C243.494 263.418 244.068 263.311 244.717 263.311C245.143 263.311 245.568 263.365 245.994 263.475C246.424 263.58 246.834 263.727 247.225 263.914L246.639 265.391C246.318 265.238 245.996 265.105 245.672 264.992C245.348 264.879 245.029 264.822 244.717 264.822ZM254.602 265.449V272H253.23L252.99 271.162H252.896C252.756 271.385 252.58 271.566 252.369 271.707C252.158 271.848 251.926 271.951 251.672 272.018C251.418 272.084 251.154 272.117 250.881 272.117C250.412 272.117 250.004 272.035 249.656 271.871C249.309 271.703 249.037 271.443 248.842 271.092C248.65 270.74 248.555 270.283 248.555 269.721V265.449H250.342V269.275C250.342 269.744 250.426 270.098 250.594 270.336C250.762 270.574 251.029 270.693 251.396 270.693C251.76 270.693 252.045 270.611 252.252 270.447C252.459 270.279 252.604 270.035 252.686 269.715C252.771 269.391 252.814 268.996 252.814 268.531V265.449H254.602ZM260.133 265.326C260.223 265.326 260.326 265.332 260.443 265.344C260.564 265.352 260.662 265.363 260.736 265.379L260.602 267.055C260.543 267.035 260.459 267.021 260.35 267.014C260.244 267.002 260.152 266.996 260.074 266.996C259.844 266.996 259.619 267.025 259.4 267.084C259.186 267.143 258.992 267.238 258.82 267.371C258.648 267.5 258.512 267.672 258.41 267.887C258.312 268.098 258.264 268.357 258.264 268.666V272H256.477V265.449H257.83L258.094 266.551H258.182C258.311 266.328 258.471 266.125 258.662 265.941C258.857 265.754 259.078 265.605 259.324 265.496C259.574 265.383 259.844 265.326 260.133 265.326ZM263.484 272L260.988 265.449H262.857L264.123 269.182C264.193 269.4 264.248 269.631 264.287 269.873C264.33 270.115 264.359 270.332 264.375 270.523H264.422C264.434 270.316 264.461 270.096 264.504 269.861C264.551 269.627 264.611 269.4 264.686 269.182L265.945 265.449H267.814L265.318 272H263.484ZM271.441 265.314C272.32 265.314 272.994 265.506 273.463 265.889C273.932 266.271 274.166 266.854 274.166 267.635V272H272.918L272.572 271.109H272.525C272.338 271.344 272.146 271.535 271.951 271.684C271.756 271.832 271.531 271.941 271.277 272.012C271.023 272.082 270.715 272.117 270.352 272.117C269.965 272.117 269.617 272.043 269.309 271.895C269.004 271.746 268.764 271.52 268.588 271.215C268.412 270.906 268.324 270.516 268.324 270.043C268.324 269.348 268.568 268.836 269.057 268.508C269.545 268.176 270.277 267.992 271.254 267.957L272.391 267.922V267.635C272.391 267.291 272.301 267.039 272.121 266.879C271.941 266.719 271.691 266.639 271.371 266.639C271.055 266.639 270.744 266.684 270.439 266.773C270.135 266.863 269.83 266.977 269.525 267.113L268.934 265.906C269.281 265.723 269.67 265.578 270.1 265.473C270.533 265.367 270.98 265.314 271.441 265.314ZM272.391 268.965L271.699 268.988C271.121 269.004 270.719 269.107 270.492 269.299C270.27 269.49 270.158 269.742 270.158 270.055C270.158 270.328 270.238 270.523 270.398 270.641C270.559 270.754 270.768 270.811 271.025 270.811C271.408 270.811 271.73 270.697 271.992 270.471C272.258 270.244 272.391 269.922 272.391 269.504V268.965ZM281.203 272.117C280.473 272.117 279.877 271.832 279.416 271.262C278.959 270.688 278.73 269.846 278.73 268.736C278.73 267.615 278.963 266.768 279.428 266.193C279.893 265.615 280.5 265.326 281.25 265.326C281.562 265.326 281.838 265.369 282.076 265.455C282.314 265.541 282.52 265.656 282.691 265.801C282.867 265.945 283.016 266.107 283.137 266.287H283.195C283.172 266.162 283.143 265.979 283.107 265.736C283.076 265.49 283.061 265.238 283.061 264.98V262.883H284.854V272H283.482L283.137 271.15H283.061C282.947 271.33 282.805 271.494 282.633 271.643C282.465 271.787 282.264 271.902 282.029 271.988C281.795 272.074 281.52 272.117 281.203 272.117ZM281.83 270.693C282.318 270.693 282.662 270.549 282.861 270.26C283.064 269.967 283.172 269.527 283.184 268.941V268.748C283.184 268.111 283.086 267.625 282.891 267.289C282.695 266.949 282.332 266.779 281.801 266.779C281.406 266.779 281.098 266.949 280.875 267.289C280.652 267.629 280.541 268.119 280.541 268.76C280.541 269.4 280.652 269.883 280.875 270.207C281.102 270.531 281.42 270.693 281.83 270.693ZM292.676 268.713C292.676 269.26 292.602 269.744 292.453 270.166C292.309 270.588 292.096 270.945 291.814 271.238C291.537 271.527 291.201 271.746 290.807 271.895C290.416 272.043 289.975 272.117 289.482 272.117C289.021 272.117 288.598 272.043 288.211 271.895C287.828 271.746 287.494 271.527 287.209 271.238C286.928 270.945 286.709 270.588 286.553 270.166C286.4 269.744 286.324 269.26 286.324 268.713C286.324 267.986 286.453 267.371 286.711 266.867C286.969 266.363 287.336 265.98 287.812 265.719C288.289 265.457 288.857 265.326 289.518 265.326C290.131 265.326 290.674 265.457 291.146 265.719C291.623 265.98 291.996 266.363 292.266 266.867C292.539 267.371 292.676 267.986 292.676 268.713ZM288.146 268.713C288.146 269.143 288.193 269.504 288.287 269.797C288.381 270.09 288.527 270.311 288.727 270.459C288.926 270.607 289.186 270.682 289.506 270.682C289.822 270.682 290.078 270.607 290.273 270.459C290.473 270.311 290.617 270.09 290.707 269.797C290.801 269.504 290.848 269.143 290.848 268.713C290.848 268.279 290.801 267.92 290.707 267.635C290.617 267.346 290.473 267.129 290.273 266.984C290.074 266.84 289.814 266.768 289.494 266.768C289.021 266.768 288.678 266.93 288.463 267.254C288.252 267.578 288.146 268.064 288.146 268.713ZM302.467 269.621C302.467 270.129 302.344 270.57 302.098 270.945C301.852 271.32 301.492 271.609 301.02 271.812C300.551 272.016 299.98 272.117 299.309 272.117C299.012 272.117 298.721 272.098 298.436 272.059C298.154 272.02 297.883 271.963 297.621 271.889C297.363 271.811 297.117 271.715 296.883 271.602V269.914C297.289 270.094 297.711 270.256 298.148 270.4C298.586 270.545 299.02 270.617 299.449 270.617C299.746 270.617 299.984 270.578 300.164 270.5C300.348 270.422 300.48 270.314 300.562 270.178C300.645 270.041 300.686 269.885 300.686 269.709C300.686 269.494 300.613 269.311 300.469 269.158C300.324 269.006 300.125 268.863 299.871 268.73C299.621 268.598 299.338 268.455 299.021 268.303C298.822 268.209 298.605 268.096 298.371 267.963C298.137 267.826 297.914 267.66 297.703 267.465C297.492 267.27 297.318 267.033 297.182 266.756C297.049 266.475 296.982 266.139 296.982 265.748C296.982 265.236 297.1 264.799 297.334 264.436C297.568 264.072 297.902 263.795 298.336 263.604C298.773 263.408 299.289 263.311 299.883 263.311C300.328 263.311 300.752 263.363 301.154 263.469C301.561 263.57 301.984 263.719 302.426 263.914L301.84 265.326C301.445 265.166 301.092 265.043 300.779 264.957C300.467 264.867 300.148 264.822 299.824 264.822C299.598 264.822 299.404 264.859 299.244 264.934C299.084 265.004 298.963 265.105 298.881 265.238C298.799 265.367 298.758 265.518 298.758 265.689C298.758 265.893 298.816 266.064 298.934 266.205C299.055 266.342 299.234 266.475 299.473 266.604C299.715 266.732 300.016 266.883 300.375 267.055C300.812 267.262 301.186 267.479 301.494 267.705C301.807 267.928 302.047 268.191 302.215 268.496C302.383 268.797 302.467 269.172 302.467 269.621ZM309.832 268.713C309.832 269.26 309.758 269.744 309.609 270.166C309.465 270.588 309.252 270.945 308.971 271.238C308.693 271.527 308.357 271.746 307.963 271.895C307.572 272.043 307.131 272.117 306.639 272.117C306.178 272.117 305.754 272.043 305.367 271.895C304.984 271.746 304.65 271.527 304.365 271.238C304.084 270.945 303.865 270.588 303.709 270.166C303.557 269.744 303.48 269.26 303.48 268.713C303.48 267.986 303.609 267.371 303.867 266.867C304.125 266.363 304.492 265.98 304.969 265.719C305.445 265.457 306.014 265.326 306.674 265.326C307.287 265.326 307.83 265.457 308.303 265.719C308.779 265.98 309.152 266.363 309.422 266.867C309.695 267.371 309.832 267.986 309.832 268.713ZM305.303 268.713C305.303 269.143 305.35 269.504 305.443 269.797C305.537 270.09 305.684 270.311 305.883 270.459C306.082 270.607 306.342 270.682 306.662 270.682C306.979 270.682 307.234 270.607 307.43 270.459C307.629 270.311 307.773 270.09 307.863 269.797C307.957 269.504 308.004 269.143 308.004 268.713C308.004 268.279 307.957 267.92 307.863 267.635C307.773 267.346 307.629 267.129 307.43 266.984C307.23 266.84 306.971 266.768 306.65 266.768C306.178 266.768 305.834 266.93 305.619 267.254C305.408 267.578 305.303 268.064 305.303 268.713ZM313.096 272H311.309V262.883H313.096V272Z" fill="#002E12"/>
<path d="M284.574 188.434C285.352 188.434 285.992 188.527 286.496 188.715C287.004 188.902 287.381 189.186 287.627 189.564C287.873 189.943 287.996 190.422 287.996 191C287.996 191.391 287.922 191.732 287.773 192.025C287.625 192.318 287.43 192.566 287.188 192.77C286.945 192.973 286.684 193.139 286.402 193.268L288.922 197H286.906L284.861 193.713H283.895V197H282.078V188.434H284.574ZM284.445 189.922H283.895V192.236H284.48C285.082 192.236 285.512 192.137 285.77 191.938C286.031 191.734 286.162 191.438 286.162 191.047C286.162 190.641 286.021 190.352 285.74 190.18C285.463 190.008 285.031 189.922 284.445 189.922ZM292.561 190.326C293.166 190.326 293.688 190.443 294.125 190.678C294.562 190.908 294.9 191.244 295.139 191.686C295.377 192.127 295.496 192.666 295.496 193.303V194.17H291.271C291.291 194.674 291.441 195.07 291.723 195.359C292.008 195.645 292.402 195.787 292.906 195.787C293.324 195.787 293.707 195.744 294.055 195.658C294.402 195.572 294.76 195.443 295.127 195.271V196.654C294.803 196.814 294.463 196.932 294.107 197.006C293.756 197.08 293.328 197.117 292.824 197.117C292.168 197.117 291.586 196.996 291.078 196.754C290.574 196.512 290.178 196.143 289.889 195.646C289.604 195.15 289.461 194.525 289.461 193.771C289.461 193.006 289.59 192.369 289.848 191.861C290.109 191.35 290.473 190.967 290.938 190.713C291.402 190.455 291.943 190.326 292.561 190.326ZM292.572 191.598C292.225 191.598 291.936 191.709 291.705 191.932C291.479 192.154 291.348 192.504 291.312 192.98H293.82C293.816 192.715 293.768 192.479 293.674 192.271C293.584 192.064 293.447 191.9 293.264 191.779C293.084 191.658 292.854 191.598 292.572 191.598ZM299.709 195.693C299.904 195.693 300.094 195.674 300.277 195.635C300.465 195.596 300.65 195.547 300.834 195.488V196.818C300.643 196.904 300.404 196.975 300.119 197.029C299.838 197.088 299.529 197.117 299.193 197.117C298.803 197.117 298.451 197.055 298.139 196.93C297.83 196.801 297.586 196.58 297.406 196.268C297.23 195.951 297.143 195.512 297.143 194.949V191.791H296.287V191.035L297.271 190.438L297.787 189.055H298.93V190.449H300.764V191.791H298.93V194.949C298.93 195.199 299 195.387 299.141 195.512C299.285 195.633 299.475 195.693 299.709 195.693ZM304.848 190.314C305.727 190.314 306.4 190.506 306.869 190.889C307.338 191.271 307.572 191.854 307.572 192.635V197H306.324L305.979 196.109H305.932C305.744 196.344 305.553 196.535 305.357 196.684C305.162 196.832 304.938 196.941 304.684 197.012C304.43 197.082 304.121 197.117 303.758 197.117C303.371 197.117 303.023 197.043 302.715 196.895C302.41 196.746 302.17 196.52 301.994 196.215C301.818 195.906 301.73 195.516 301.73 195.043C301.73 194.348 301.975 193.836 302.463 193.508C302.951 193.176 303.684 192.992 304.66 192.957L305.797 192.922V192.635C305.797 192.291 305.707 192.039 305.527 191.879C305.348 191.719 305.098 191.639 304.777 191.639C304.461 191.639 304.15 191.684 303.846 191.773C303.541 191.863 303.236 191.977 302.932 192.113L302.34 190.906C302.688 190.723 303.076 190.578 303.506 190.473C303.939 190.367 304.387 190.314 304.848 190.314ZM305.797 193.965L305.105 193.988C304.527 194.004 304.125 194.107 303.898 194.299C303.676 194.49 303.564 194.742 303.564 195.055C303.564 195.328 303.645 195.523 303.805 195.641C303.965 195.754 304.174 195.811 304.432 195.811C304.814 195.811 305.137 195.697 305.398 195.471C305.664 195.244 305.797 194.922 305.797 194.504V193.965ZM320.451 192.705C320.451 193.365 320.369 193.967 320.205 194.51C320.041 195.049 319.791 195.514 319.455 195.904C319.123 196.295 318.701 196.596 318.189 196.807C317.678 197.014 317.072 197.117 316.373 197.117C315.674 197.117 315.068 197.014 314.557 196.807C314.045 196.596 313.621 196.295 313.285 195.904C312.953 195.514 312.705 195.047 312.541 194.504C312.377 193.961 312.295 193.357 312.295 192.693C312.295 191.807 312.439 191.035 312.729 190.379C313.021 189.719 313.471 189.207 314.076 188.844C314.682 188.48 315.451 188.299 316.385 188.299C317.314 188.299 318.078 188.48 318.676 188.844C319.277 189.207 319.723 189.719 320.012 190.379C320.305 191.039 320.451 191.814 320.451 192.705ZM314.199 192.705C314.199 193.303 314.273 193.818 314.422 194.252C314.574 194.682 314.811 195.014 315.131 195.248C315.451 195.479 315.865 195.594 316.373 195.594C316.889 195.594 317.307 195.479 317.627 195.248C317.947 195.014 318.18 194.682 318.324 194.252C318.473 193.818 318.547 193.303 318.547 192.705C318.547 191.807 318.379 191.1 318.043 190.584C317.707 190.068 317.154 189.811 316.385 189.811C315.873 189.811 315.455 189.928 315.131 190.162C314.811 190.393 314.574 190.725 314.422 191.158C314.273 191.588 314.199 192.104 314.199 192.705ZM325.73 190.326C326.469 190.326 327.064 190.613 327.518 191.188C327.975 191.762 328.203 192.604 328.203 193.713C328.203 194.455 328.096 195.08 327.881 195.588C327.666 196.092 327.369 196.473 326.99 196.73C326.611 196.988 326.176 197.117 325.684 197.117C325.367 197.117 325.096 197.078 324.869 197C324.643 196.918 324.449 196.814 324.289 196.689C324.129 196.561 323.99 196.424 323.873 196.279H323.779C323.811 196.436 323.834 196.596 323.85 196.76C323.865 196.924 323.873 197.084 323.873 197.24V199.883H322.086V190.449H323.539L323.791 191.299H323.873C323.99 191.123 324.133 190.961 324.301 190.812C324.469 190.664 324.67 190.547 324.904 190.461C325.143 190.371 325.418 190.326 325.73 190.326ZM325.156 191.756C324.844 191.756 324.596 191.82 324.412 191.949C324.229 192.078 324.094 192.271 324.008 192.529C323.926 192.787 323.881 193.113 323.873 193.508V193.701C323.873 194.123 323.912 194.48 323.99 194.773C324.072 195.066 324.207 195.289 324.395 195.441C324.586 195.594 324.848 195.67 325.18 195.67C325.453 195.67 325.678 195.594 325.854 195.441C326.029 195.289 326.16 195.066 326.246 194.773C326.336 194.477 326.381 194.115 326.381 193.689C326.381 193.049 326.281 192.566 326.082 192.242C325.883 191.918 325.574 191.756 325.156 191.756ZM335.633 193.713C335.633 194.26 335.559 194.744 335.41 195.166C335.266 195.588 335.053 195.945 334.771 196.238C334.494 196.527 334.158 196.746 333.764 196.895C333.373 197.043 332.932 197.117 332.439 197.117C331.979 197.117 331.555 197.043 331.168 196.895C330.785 196.746 330.451 196.527 330.166 196.238C329.885 195.945 329.666 195.588 329.51 195.166C329.357 194.744 329.281 194.26 329.281 193.713C329.281 192.986 329.41 192.371 329.668 191.867C329.926 191.363 330.293 190.98 330.77 190.719C331.246 190.457 331.814 190.326 332.475 190.326C333.088 190.326 333.631 190.457 334.104 190.719C334.58 190.98 334.953 191.363 335.223 191.867C335.496 192.371 335.633 192.986 335.633 193.713ZM331.104 193.713C331.104 194.143 331.15 194.504 331.244 194.797C331.338 195.09 331.484 195.311 331.684 195.459C331.883 195.607 332.143 195.682 332.463 195.682C332.779 195.682 333.035 195.607 333.23 195.459C333.43 195.311 333.574 195.09 333.664 194.797C333.758 194.504 333.805 194.143 333.805 193.713C333.805 193.279 333.758 192.92 333.664 192.635C333.574 192.346 333.43 192.129 333.23 191.984C333.031 191.84 332.771 191.768 332.451 191.768C331.979 191.768 331.635 191.93 331.42 192.254C331.209 192.578 331.104 193.064 331.104 193.713ZM341.68 195.055C341.68 195.5 341.574 195.877 341.363 196.186C341.156 196.49 340.846 196.723 340.432 196.883C340.018 197.039 339.502 197.117 338.885 197.117C338.428 197.117 338.035 197.088 337.707 197.029C337.383 196.971 337.055 196.873 336.723 196.736V195.26C337.078 195.42 337.459 195.553 337.865 195.658C338.275 195.76 338.635 195.811 338.943 195.811C339.291 195.811 339.539 195.76 339.688 195.658C339.84 195.553 339.916 195.416 339.916 195.248C339.916 195.139 339.885 195.041 339.822 194.955C339.764 194.865 339.635 194.766 339.436 194.656C339.236 194.543 338.924 194.396 338.498 194.217C338.088 194.045 337.75 193.871 337.484 193.695C337.223 193.52 337.027 193.312 336.898 193.074C336.773 192.832 336.711 192.525 336.711 192.154C336.711 191.549 336.945 191.094 337.414 190.789C337.887 190.48 338.518 190.326 339.307 190.326C339.713 190.326 340.1 190.367 340.467 190.449C340.838 190.531 341.219 190.662 341.609 190.842L341.07 192.131C340.746 191.99 340.439 191.875 340.15 191.785C339.865 191.695 339.574 191.65 339.277 191.65C339.016 191.65 338.818 191.686 338.686 191.756C338.553 191.826 338.486 191.934 338.486 192.078C338.486 192.184 338.52 192.277 338.586 192.359C338.656 192.441 338.789 192.533 338.984 192.635C339.184 192.732 339.475 192.859 339.857 193.016C340.229 193.168 340.551 193.328 340.824 193.496C341.098 193.66 341.309 193.865 341.457 194.111C341.605 194.354 341.68 194.668 341.68 195.055ZM345.834 195.693C346.029 195.693 346.219 195.674 346.402 195.635C346.59 195.596 346.775 195.547 346.959 195.488V196.818C346.768 196.904 346.529 196.975 346.244 197.029C345.963 197.088 345.654 197.117 345.318 197.117C344.928 197.117 344.576 197.055 344.264 196.93C343.955 196.801 343.711 196.58 343.531 196.268C343.355 195.951 343.268 195.512 343.268 194.949V191.791H342.412V191.035L343.396 190.438L343.912 189.055H345.055V190.449H346.889V191.791H345.055V194.949C345.055 195.199 345.125 195.387 345.266 195.512C345.41 195.633 345.6 195.693 345.834 195.693ZM350.973 190.314C351.852 190.314 352.525 190.506 352.994 190.889C353.463 191.271 353.697 191.854 353.697 192.635V197H352.449L352.104 196.109H352.057C351.869 196.344 351.678 196.535 351.482 196.684C351.287 196.832 351.062 196.941 350.809 197.012C350.555 197.082 350.246 197.117 349.883 197.117C349.496 197.117 349.148 197.043 348.84 196.895C348.535 196.746 348.295 196.52 348.119 196.215C347.943 195.906 347.855 195.516 347.855 195.043C347.855 194.348 348.1 193.836 348.588 193.508C349.076 193.176 349.809 192.992 350.785 192.957L351.922 192.922V192.635C351.922 192.291 351.832 192.039 351.652 191.879C351.473 191.719 351.223 191.639 350.902 191.639C350.586 191.639 350.275 191.684 349.971 191.773C349.666 191.863 349.361 191.977 349.057 192.113L348.465 190.906C348.812 190.723 349.201 190.578 349.631 190.473C350.064 190.367 350.512 190.314 350.973 190.314ZM351.922 193.965L351.23 193.988C350.652 194.004 350.25 194.107 350.023 194.299C349.801 194.49 349.689 194.742 349.689 195.055C349.689 195.328 349.77 195.523 349.93 195.641C350.09 195.754 350.299 195.811 350.557 195.811C350.939 195.811 351.262 195.697 351.523 195.471C351.789 195.244 351.922 194.922 351.922 194.504V193.965Z" fill="#002E12"/>
<path d="M167.078 172V163.434H168.895V170.5H172.369V172H167.078ZM176.406 165.314C177.285 165.314 177.959 165.506 178.428 165.889C178.896 166.271 179.131 166.854 179.131 167.635V172H177.883L177.537 171.109H177.49C177.303 171.344 177.111 171.535 176.916 171.684C176.721 171.832 176.496 171.941 176.242 172.012C175.988 172.082 175.68 172.117 175.316 172.117C174.93 172.117 174.582 172.043 174.273 171.895C173.969 171.746 173.729 171.52 173.553 171.215C173.377 170.906 173.289 170.516 173.289 170.043C173.289 169.348 173.533 168.836 174.021 168.508C174.51 168.176 175.242 167.992 176.219 167.957L177.355 167.922V167.635C177.355 167.291 177.266 167.039 177.086 166.879C176.906 166.719 176.656 166.639 176.336 166.639C176.02 166.639 175.709 166.684 175.404 166.773C175.1 166.863 174.795 166.977 174.49 167.113L173.898 165.906C174.246 165.723 174.635 165.578 175.064 165.473C175.498 165.367 175.945 165.314 176.406 165.314ZM177.355 168.965L176.664 168.988C176.086 169.004 175.684 169.107 175.457 169.299C175.234 169.49 175.123 169.742 175.123 170.055C175.123 170.328 175.203 170.523 175.363 170.641C175.523 170.754 175.732 170.811 175.99 170.811C176.373 170.811 176.695 170.697 176.957 170.471C177.223 170.244 177.355 169.922 177.355 169.504V168.965ZM184.633 165.326C184.723 165.326 184.826 165.332 184.943 165.344C185.064 165.352 185.162 165.363 185.236 165.379L185.102 167.055C185.043 167.035 184.959 167.021 184.85 167.014C184.744 167.002 184.652 166.996 184.574 166.996C184.344 166.996 184.119 167.025 183.9 167.084C183.686 167.143 183.492 167.238 183.32 167.371C183.148 167.5 183.012 167.672 182.91 167.887C182.812 168.098 182.764 168.357 182.764 168.666V172H180.977V165.449H182.33L182.594 166.551H182.682C182.811 166.328 182.971 166.125 183.162 165.941C183.357 165.754 183.578 165.605 183.824 165.496C184.074 165.383 184.344 165.326 184.633 165.326ZM189.109 165.314C189.988 165.314 190.662 165.506 191.131 165.889C191.6 166.271 191.834 166.854 191.834 167.635V172H190.586L190.24 171.109H190.193C190.006 171.344 189.814 171.535 189.619 171.684C189.424 171.832 189.199 171.941 188.945 172.012C188.691 172.082 188.383 172.117 188.02 172.117C187.633 172.117 187.285 172.043 186.977 171.895C186.672 171.746 186.432 171.52 186.256 171.215C186.08 170.906 185.992 170.516 185.992 170.043C185.992 169.348 186.236 168.836 186.725 168.508C187.213 168.176 187.945 167.992 188.922 167.957L190.059 167.922V167.635C190.059 167.291 189.969 167.039 189.789 166.879C189.609 166.719 189.359 166.639 189.039 166.639C188.723 166.639 188.412 166.684 188.107 166.773C187.803 166.863 187.498 166.977 187.193 167.113L186.602 165.906C186.949 165.723 187.338 165.578 187.768 165.473C188.201 165.367 188.648 165.314 189.109 165.314ZM190.059 168.965L189.367 168.988C188.789 169.004 188.387 169.107 188.16 169.299C187.938 169.49 187.826 169.742 187.826 170.055C187.826 170.328 187.906 170.523 188.066 170.641C188.227 170.754 188.436 170.811 188.693 170.811C189.076 170.811 189.398 170.697 189.66 170.471C189.926 170.244 190.059 169.922 190.059 169.504V168.965ZM197.4 165.326C198.1 165.326 198.662 165.518 199.088 165.9C199.514 166.279 199.727 166.889 199.727 167.729V172H197.939V168.174C197.939 167.705 197.854 167.352 197.682 167.113C197.514 166.875 197.248 166.756 196.885 166.756C196.338 166.756 195.965 166.941 195.766 167.312C195.566 167.684 195.467 168.219 195.467 168.918V172H193.68V165.449H195.045L195.285 166.287H195.385C195.525 166.061 195.699 165.877 195.906 165.736C196.117 165.596 196.35 165.492 196.604 165.426C196.861 165.359 197.127 165.326 197.4 165.326ZM201.039 174.883C200.836 174.883 200.625 174.867 200.406 174.836C200.188 174.809 200.006 174.775 199.861 174.736V173.33C200.006 173.369 200.143 173.396 200.271 173.412C200.396 173.432 200.539 173.441 200.699 173.441C200.941 173.441 201.146 173.373 201.314 173.236C201.482 173.104 201.566 172.84 201.566 172.445V165.449H203.354V172.709C203.354 173.107 203.277 173.471 203.125 173.799C202.973 174.131 202.727 174.395 202.387 174.59C202.047 174.785 201.598 174.883 201.039 174.883ZM201.49 163.756C201.49 163.42 201.584 163.191 201.771 163.07C201.963 162.945 202.193 162.883 202.463 162.883C202.729 162.883 202.957 162.945 203.148 163.07C203.34 163.191 203.436 163.42 203.436 163.756C203.436 164.088 203.34 164.318 203.148 164.447C202.957 164.572 202.729 164.635 202.463 164.635C202.193 164.635 201.963 164.572 201.771 164.447C201.584 164.318 201.49 164.088 201.49 163.756ZM207.021 165.449V172H205.234V165.449H207.021ZM206.131 162.883C206.396 162.883 206.625 162.945 206.816 163.07C207.008 163.191 207.104 163.42 207.104 163.756C207.104 164.088 207.008 164.318 206.816 164.447C206.625 164.572 206.396 164.635 206.131 164.635C205.861 164.635 205.631 164.572 205.439 164.447C205.252 164.318 205.158 164.088 205.158 163.756C205.158 163.42 205.252 163.191 205.439 163.07C205.631 162.945 205.861 162.883 206.131 162.883ZM212.623 165.326C213.322 165.326 213.885 165.518 214.311 165.9C214.736 166.279 214.949 166.889 214.949 167.729V172H213.162V168.174C213.162 167.705 213.076 167.352 212.904 167.113C212.736 166.875 212.471 166.756 212.107 166.756C211.561 166.756 211.188 166.941 210.988 167.312C210.789 167.684 210.689 168.219 210.689 168.918V172H208.902V165.449H210.268L210.508 166.287H210.607C210.748 166.061 210.922 165.877 211.129 165.736C211.34 165.596 211.572 165.492 211.826 165.426C212.084 165.359 212.35 165.326 212.623 165.326ZM218.576 162.883V164.74C218.576 165.064 218.564 165.373 218.541 165.666C218.521 165.959 218.506 166.166 218.494 166.287H218.588C218.729 166.061 218.895 165.877 219.086 165.736C219.281 165.596 219.496 165.492 219.73 165.426C219.965 165.359 220.217 165.326 220.486 165.326C220.959 165.326 221.371 165.41 221.723 165.578C222.074 165.742 222.348 166.002 222.543 166.357C222.738 166.709 222.836 167.166 222.836 167.729V172H221.049V168.174C221.049 167.705 220.963 167.352 220.791 167.113C220.619 166.875 220.354 166.756 219.994 166.756C219.635 166.756 219.352 166.84 219.145 167.008C218.938 167.172 218.791 167.416 218.705 167.74C218.619 168.061 218.576 168.453 218.576 168.918V172H216.789V162.883H218.576ZM227.359 165.314C228.238 165.314 228.912 165.506 229.381 165.889C229.85 166.271 230.084 166.854 230.084 167.635V172H228.836L228.49 171.109H228.443C228.256 171.344 228.064 171.535 227.869 171.684C227.674 171.832 227.449 171.941 227.195 172.012C226.941 172.082 226.633 172.117 226.27 172.117C225.883 172.117 225.535 172.043 225.227 171.895C224.922 171.746 224.682 171.52 224.506 171.215C224.33 170.906 224.242 170.516 224.242 170.043C224.242 169.348 224.486 168.836 224.975 168.508C225.463 168.176 226.195 167.992 227.172 167.957L228.309 167.922V167.635C228.309 167.291 228.219 167.039 228.039 166.879C227.859 166.719 227.609 166.639 227.289 166.639C226.973 166.639 226.662 166.684 226.357 166.773C226.053 166.863 225.748 166.977 225.443 167.113L224.852 165.906C225.199 165.723 225.588 165.578 226.018 165.473C226.451 165.367 226.898 165.314 227.359 165.314ZM228.309 168.965L227.617 168.988C227.039 169.004 226.637 169.107 226.41 169.299C226.188 169.49 226.076 169.742 226.076 170.055C226.076 170.328 226.156 170.523 226.316 170.641C226.477 170.754 226.686 170.811 226.943 170.811C227.326 170.811 227.648 170.697 227.91 170.471C228.176 170.244 228.309 169.922 228.309 169.504V168.965Z" fill="#002E12"/>
<path d="M286.814 122.434C287.92 122.434 288.727 122.672 289.234 123.148C289.742 123.621 289.996 124.273 289.996 125.105C289.996 125.48 289.939 125.84 289.826 126.184C289.713 126.523 289.527 126.826 289.27 127.092C289.016 127.357 288.676 127.568 288.25 127.725C287.824 127.877 287.299 127.953 286.674 127.953H285.895V131H284.078V122.434H286.814ZM286.721 123.922H285.895V126.465H286.492C286.832 126.465 287.127 126.42 287.377 126.33C287.627 126.24 287.82 126.1 287.957 125.908C288.094 125.717 288.162 125.471 288.162 125.17C288.162 124.748 288.045 124.436 287.811 124.232C287.576 124.025 287.213 123.922 286.721 123.922ZM293.26 124.449V131H291.473V124.449H293.26ZM292.369 121.883C292.635 121.883 292.863 121.945 293.055 122.07C293.246 122.191 293.342 122.42 293.342 122.756C293.342 123.088 293.246 123.318 293.055 123.447C292.863 123.572 292.635 123.635 292.369 123.635C292.1 123.635 291.869 123.572 291.678 123.447C291.49 123.318 291.396 123.088 291.396 122.756C291.396 122.42 291.49 122.191 291.678 122.07C291.869 121.945 292.1 121.883 292.369 121.883ZM298.861 124.326C299.561 124.326 300.123 124.518 300.549 124.9C300.975 125.279 301.188 125.889 301.188 126.729V131H299.4V127.174C299.4 126.705 299.314 126.352 299.143 126.113C298.975 125.875 298.709 125.756 298.346 125.756C297.799 125.756 297.426 125.941 297.227 126.312C297.027 126.684 296.928 127.219 296.928 127.918V131H295.141V124.449H296.506L296.746 125.287H296.846C296.986 125.061 297.16 124.877 297.367 124.736C297.578 124.596 297.811 124.492 298.064 124.426C298.322 124.359 298.588 124.326 298.861 124.326ZM304.814 121.883V123.74C304.814 124.064 304.803 124.373 304.779 124.666C304.76 124.959 304.744 125.166 304.732 125.287H304.826C304.967 125.061 305.133 124.877 305.324 124.736C305.52 124.596 305.734 124.492 305.969 124.426C306.203 124.359 306.455 124.326 306.725 124.326C307.197 124.326 307.609 124.41 307.961 124.578C308.312 124.742 308.586 125.002 308.781 125.357C308.977 125.709 309.074 126.166 309.074 126.729V131H307.287V127.174C307.287 126.705 307.201 126.352 307.029 126.113C306.857 125.875 306.592 125.756 306.232 125.756C305.873 125.756 305.59 125.84 305.383 126.008C305.176 126.172 305.029 126.416 304.943 126.74C304.857 127.061 304.814 127.453 304.814 127.918V131H303.027V121.883H304.814ZM313.615 124.326C314.221 124.326 314.742 124.443 315.18 124.678C315.617 124.908 315.955 125.244 316.193 125.686C316.432 126.127 316.551 126.666 316.551 127.303V128.17H312.326C312.346 128.674 312.496 129.07 312.777 129.359C313.062 129.645 313.457 129.787 313.961 129.787C314.379 129.787 314.762 129.744 315.109 129.658C315.457 129.572 315.814 129.443 316.182 129.271V130.654C315.857 130.814 315.518 130.932 315.162 131.006C314.811 131.08 314.383 131.117 313.879 131.117C313.223 131.117 312.641 130.996 312.133 130.754C311.629 130.512 311.232 130.143 310.943 129.646C310.658 129.15 310.516 128.525 310.516 127.771C310.516 127.006 310.645 126.369 310.902 125.861C311.164 125.35 311.527 124.967 311.992 124.713C312.457 124.455 312.998 124.326 313.615 124.326ZM313.627 125.598C313.279 125.598 312.99 125.709 312.76 125.932C312.533 126.154 312.402 126.504 312.367 126.98H314.875C314.871 126.715 314.822 126.479 314.729 126.271C314.639 126.064 314.502 125.9 314.318 125.779C314.139 125.658 313.908 125.598 313.627 125.598ZM319.791 124.449V131H318.004V124.449H319.791ZM318.9 121.883C319.166 121.883 319.395 121.945 319.586 122.07C319.777 122.191 319.873 122.42 319.873 122.756C319.873 123.088 319.777 123.318 319.586 123.447C319.395 123.572 319.166 123.635 318.9 123.635C318.631 123.635 318.4 123.572 318.209 123.447C318.021 123.318 317.928 123.088 317.928 122.756C317.928 122.42 318.021 122.191 318.209 122.07C318.4 121.945 318.631 121.883 318.9 121.883ZM325.328 124.326C325.418 124.326 325.521 124.332 325.639 124.344C325.76 124.352 325.857 124.363 325.932 124.379L325.797 126.055C325.738 126.035 325.654 126.021 325.545 126.014C325.439 126.002 325.348 125.996 325.27 125.996C325.039 125.996 324.814 126.025 324.596 126.084C324.381 126.143 324.188 126.238 324.016 126.371C323.844 126.5 323.707 126.672 323.605 126.887C323.508 127.098 323.459 127.357 323.459 127.666V131H321.672V124.449H323.025L323.289 125.551H323.377C323.506 125.328 323.666 125.125 323.857 124.941C324.053 124.754 324.273 124.605 324.52 124.496C324.77 124.383 325.039 124.326 325.328 124.326ZM328.908 124.449V131H327.121V124.449H328.908ZM328.018 121.883C328.283 121.883 328.512 121.945 328.703 122.07C328.895 122.191 328.99 122.42 328.99 122.756C328.99 123.088 328.895 123.318 328.703 123.447C328.512 123.572 328.283 123.635 328.018 123.635C327.748 123.635 327.518 123.572 327.326 123.447C327.139 123.318 327.045 123.088 327.045 122.756C327.045 122.42 327.139 122.191 327.326 122.07C327.518 121.945 327.748 121.883 328.018 121.883ZM334.51 124.326C335.209 124.326 335.771 124.518 336.197 124.9C336.623 125.279 336.836 125.889 336.836 126.729V131H335.049V127.174C335.049 126.705 334.963 126.352 334.791 126.113C334.623 125.875 334.357 125.756 333.994 125.756C333.447 125.756 333.074 125.941 332.875 126.312C332.676 126.684 332.576 127.219 332.576 127.918V131H330.789V124.449H332.154L332.395 125.287H332.494C332.635 125.061 332.809 124.877 333.016 124.736C333.227 124.596 333.459 124.492 333.713 124.426C333.971 124.359 334.236 124.326 334.51 124.326ZM340.463 121.883V123.74C340.463 124.064 340.451 124.373 340.428 124.666C340.408 124.959 340.393 125.166 340.381 125.287H340.475C340.615 125.061 340.781 124.877 340.973 124.736C341.168 124.596 341.383 124.492 341.617 124.426C341.852 124.359 342.104 124.326 342.373 124.326C342.846 124.326 343.258 124.41 343.609 124.578C343.961 124.742 344.234 125.002 344.43 125.357C344.625 125.709 344.723 126.166 344.723 126.729V131H342.936V127.174C342.936 126.705 342.85 126.352 342.678 126.113C342.506 125.875 342.24 125.756 341.881 125.756C341.521 125.756 341.238 125.84 341.031 126.008C340.824 126.172 340.678 126.416 340.592 126.74C340.506 127.061 340.463 127.453 340.463 127.918V131H338.676V121.883H340.463ZM352.516 127.713C352.516 128.26 352.441 128.744 352.293 129.166C352.148 129.588 351.936 129.945 351.654 130.238C351.377 130.527 351.041 130.746 350.646 130.895C350.256 131.043 349.814 131.117 349.322 131.117C348.861 131.117 348.438 131.043 348.051 130.895C347.668 130.746 347.334 130.527 347.049 130.238C346.768 129.945 346.549 129.588 346.393 129.166C346.24 128.744 346.164 128.26 346.164 127.713C346.164 126.986 346.293 126.371 346.551 125.867C346.809 125.363 347.176 124.98 347.652 124.719C348.129 124.457 348.697 124.326 349.357 124.326C349.971 124.326 350.514 124.457 350.986 124.719C351.463 124.98 351.836 125.363 352.105 125.867C352.379 126.371 352.516 126.986 352.516 127.713ZM347.986 127.713C347.986 128.143 348.033 128.504 348.127 128.797C348.221 129.09 348.367 129.311 348.566 129.459C348.766 129.607 349.025 129.682 349.346 129.682C349.662 129.682 349.918 129.607 350.113 129.459C350.312 129.311 350.457 129.09 350.547 128.797C350.641 128.504 350.688 128.143 350.688 127.713C350.688 127.279 350.641 126.92 350.547 126.635C350.457 126.346 350.312 126.129 350.113 125.984C349.914 125.84 349.654 125.768 349.334 125.768C348.861 125.768 348.518 125.93 348.303 126.254C348.092 126.578 347.986 127.064 347.986 127.713Z" fill="#002E12"/>
<path d="M28.0781 5.43359H30.7441C31.8848 5.43359 32.748 5.59375 33.334 5.91406C33.9199 6.23438 34.2129 6.79688 34.2129 7.60156C34.2129 7.92578 34.1602 8.21875 34.0547 8.48047C33.9531 8.74219 33.8047 8.95703 33.6094 9.125C33.4141 9.29297 33.1758 9.40234 32.8945 9.45312V9.51172C33.1797 9.57031 33.4375 9.67188 33.668 9.81641C33.8984 9.95703 34.082 10.1641 34.2188 10.4375C34.3594 10.707 34.4297 11.0664 34.4297 11.5156C34.4297 12.0352 34.3027 12.4805 34.0488 12.8516C33.7949 13.2227 33.4316 13.5078 32.959 13.707C32.4902 13.9023 31.9316 14 31.2832 14H28.0781V5.43359ZM29.8945 8.82617H30.9492C31.4766 8.82617 31.8418 8.74414 32.0449 8.58008C32.248 8.41211 32.3496 8.16602 32.3496 7.8418C32.3496 7.51367 32.2285 7.2793 31.9863 7.13867C31.748 6.99414 31.3691 6.92188 30.8496 6.92188H29.8945V8.82617ZM29.8945 10.2676V12.5H31.0781C31.625 12.5 32.0059 12.3945 32.2207 12.1836C32.4355 11.9727 32.543 11.6895 32.543 11.334C32.543 11.123 32.4961 10.9375 32.4023 10.7773C32.3086 10.6172 32.1504 10.4922 31.9277 10.4023C31.709 10.3125 31.4062 10.2676 31.0195 10.2676H29.8945ZM37.7871 7.44922V14H36V7.44922H37.7871ZM36.8965 4.88281C37.1621 4.88281 37.3906 4.94531 37.582 5.07031C37.7734 5.19141 37.8691 5.41992 37.8691 5.75586C37.8691 6.08789 37.7734 6.31836 37.582 6.44727C37.3906 6.57227 37.1621 6.63477 36.8965 6.63477C36.627 6.63477 36.3965 6.57227 36.2051 6.44727C36.0176 6.31836 35.9238 6.08789 35.9238 5.75586C35.9238 5.41992 36.0176 5.19141 36.2051 5.07031C36.3965 4.94531 36.627 4.88281 36.8965 4.88281ZM42.3281 14.1172C41.6797 14.1172 41.127 14 40.6699 13.7656C40.2129 13.5273 39.8652 13.1602 39.627 12.6641C39.3887 12.168 39.2695 11.5332 39.2695 10.7598C39.2695 9.95898 39.4043 9.30664 39.6738 8.80273C39.9473 8.29492 40.3242 7.92188 40.8047 7.68359C41.2891 7.44531 41.8496 7.32617 42.4863 7.32617C42.9395 7.32617 43.3301 7.37109 43.6582 7.46094C43.9902 7.54688 44.2793 7.65039 44.5254 7.77148L43.998 9.1543C43.7168 9.04102 43.4551 8.94922 43.2129 8.87891C42.9707 8.80469 42.7285 8.76758 42.4863 8.76758C42.1738 8.76758 41.9141 8.8418 41.707 8.99023C41.5 9.13477 41.3457 9.35352 41.2441 9.64648C41.1426 9.93945 41.0918 10.3066 41.0918 10.748C41.0918 11.1816 41.1465 11.541 41.2559 11.8262C41.3652 12.1113 41.5234 12.3242 41.7305 12.4648C41.9375 12.6016 42.1895 12.6699 42.4863 12.6699C42.8574 12.6699 43.1875 12.6211 43.4766 12.5234C43.7656 12.4219 44.0469 12.2812 44.3203 12.1016V13.6309C44.0469 13.8027 43.7598 13.9258 43.459 14C43.1621 14.0781 42.7852 14.1172 42.3281 14.1172ZM51.7969 10.7129C51.7969 11.2598 51.7227 11.7441 51.5742 12.166C51.4297 12.5879 51.2168 12.9453 50.9355 13.2383C50.6582 13.5273 50.3223 13.7461 49.9277 13.8945C49.5371 14.043 49.0957 14.1172 48.6035 14.1172C48.1426 14.1172 47.7188 14.043 47.332 13.8945C46.9492 13.7461 46.6152 13.5273 46.3301 13.2383C46.0488 12.9453 45.8301 12.5879 45.6738 12.166C45.5215 11.7441 45.4453 11.2598 45.4453 10.7129C45.4453 9.98633 45.5742 9.37109 45.832 8.86719C46.0898 8.36328 46.457 7.98047 46.9336 7.71875C47.4102 7.45703 47.9785 7.32617 48.6387 7.32617C49.252 7.32617 49.7949 7.45703 50.2676 7.71875C50.7441 7.98047 51.1172 8.36328 51.3867 8.86719C51.6602 9.37109 51.7969 9.98633 51.7969 10.7129ZM47.2676 10.7129C47.2676 11.1426 47.3145 11.5039 47.4082 11.7969C47.502 12.0898 47.6484 12.3105 47.8477 12.459C48.0469 12.6074 48.3066 12.6816 48.627 12.6816C48.9434 12.6816 49.1992 12.6074 49.3945 12.459C49.5938 12.3105 49.7383 12.0898 49.8281 11.7969C49.9219 11.5039 49.9688 11.1426 49.9688 10.7129C49.9688 10.2793 49.9219 9.91992 49.8281 9.63477C49.7383 9.3457 49.5938 9.12891 49.3945 8.98438C49.1953 8.83984 48.9355 8.76758 48.6152 8.76758C48.1426 8.76758 47.7988 8.92969 47.584 9.25391C47.373 9.57812 47.2676 10.0645 47.2676 10.7129ZM58.4648 14.1172C57.7344 14.1172 57.1387 13.832 56.6777 13.2617C56.2207 12.6875 55.9922 11.8457 55.9922 10.7363C55.9922 9.61523 56.2246 8.76758 56.6895 8.19336C57.1543 7.61523 57.7617 7.32617 58.5117 7.32617C58.8242 7.32617 59.0996 7.36914 59.3379 7.45508C59.5762 7.54102 59.7812 7.65625 59.9531 7.80078C60.1289 7.94531 60.2773 8.10742 60.3984 8.28711H60.457C60.4336 8.16211 60.4043 7.97852 60.3691 7.73633C60.3379 7.49023 60.3223 7.23828 60.3223 6.98047V4.88281H62.1152V14H60.7441L60.3984 13.1504H60.3223C60.209 13.3301 60.0664 13.4941 59.8945 13.6426C59.7266 13.7871 59.5254 13.9023 59.291 13.9883C59.0566 14.0742 58.7812 14.1172 58.4648 14.1172ZM59.0918 12.6934C59.5801 12.6934 59.9238 12.5488 60.123 12.2598C60.3262 11.9668 60.4336 11.5273 60.4453 10.9414V10.748C60.4453 10.1113 60.3477 9.625 60.1523 9.28906C59.957 8.94922 59.5938 8.7793 59.0625 8.7793C58.668 8.7793 58.3594 8.94922 58.1367 9.28906C57.9141 9.62891 57.8027 10.1191 57.8027 10.7598C57.8027 11.4004 57.9141 11.8828 58.1367 12.207C58.3633 12.5312 58.6816 12.6934 59.0918 12.6934ZM66.6855 7.32617C67.291 7.32617 67.8125 7.44336 68.25 7.67773C68.6875 7.9082 69.0254 8.24414 69.2637 8.68555C69.502 9.12695 69.6211 9.66602 69.6211 10.3027V11.1699H65.3965C65.416 11.6738 65.5664 12.0703 65.8477 12.3594C66.1328 12.6445 66.5273 12.7871 67.0312 12.7871C67.4492 12.7871 67.832 12.7441 68.1797 12.6582C68.5273 12.5723 68.8848 12.4434 69.252 12.2715V13.6543C68.9277 13.8145 68.5879 13.9316 68.2324 14.0059C67.8809 14.0801 67.4531 14.1172 66.9492 14.1172C66.293 14.1172 65.7109 13.9961 65.2031 13.7539C64.6992 13.5117 64.3027 13.1426 64.0137 12.6465C63.7285 12.1504 63.5859 11.5254 63.5859 10.7715C63.5859 10.0059 63.7148 9.36914 63.9727 8.86133C64.2344 8.34961 64.5977 7.9668 65.0625 7.71289C65.5273 7.45508 66.0684 7.32617 66.6855 7.32617ZM66.6973 8.59766C66.3496 8.59766 66.0605 8.70898 65.8301 8.93164C65.6035 9.1543 65.4727 9.50391 65.4375 9.98047H67.9453C67.9414 9.71484 67.8926 9.47852 67.7988 9.27148C67.709 9.06445 67.5723 8.90039 67.3887 8.7793C67.209 8.6582 66.9785 8.59766 66.6973 8.59766ZM77.0684 5.43359C78.1738 5.43359 78.9805 5.67188 79.4883 6.14844C79.9961 6.62109 80.25 7.27344 80.25 8.10547C80.25 8.48047 80.1934 8.83984 80.0801 9.18359C79.9668 9.52344 79.7812 9.82617 79.5234 10.0918C79.2695 10.3574 78.9297 10.5684 78.5039 10.7246C78.0781 10.877 77.5527 10.9531 76.9277 10.9531H76.1484V14H74.332V5.43359H77.0684ZM76.9746 6.92188H76.1484V9.46484H76.7461C77.0859 9.46484 77.3809 9.41992 77.6309 9.33008C77.8809 9.24023 78.0742 9.09961 78.2109 8.9082C78.3477 8.7168 78.416 8.4707 78.416 8.16992C78.416 7.74805 78.2988 7.43555 78.0645 7.23242C77.8301 7.02539 77.4668 6.92188 76.9746 6.92188ZM84.4102 7.31445C85.2891 7.31445 85.9629 7.50586 86.4316 7.88867C86.9004 8.27148 87.1348 8.85352 87.1348 9.63477V14H85.8867L85.541 13.1094H85.4941C85.3066 13.3438 85.1152 13.5352 84.9199 13.6836C84.7246 13.832 84.5 13.9414 84.2461 14.0117C83.9922 14.082 83.6836 14.1172 83.3203 14.1172C82.9336 14.1172 82.5859 14.043 82.2773 13.8945C81.9727 13.7461 81.7324 13.5195 81.5566 13.2148C81.3809 12.9062 81.293 12.5156 81.293 12.043C81.293 11.3477 81.5371 10.8359 82.0254 10.5078C82.5137 10.1758 83.2461 9.99219 84.2227 9.95703L85.3594 9.92188V9.63477C85.3594 9.29102 85.2695 9.03906 85.0898 8.87891C84.9102 8.71875 84.6602 8.63867 84.3398 8.63867C84.0234 8.63867 83.7129 8.68359 83.4082 8.77344C83.1035 8.86328 82.7988 8.97656 82.4941 9.11328L81.9023 7.90625C82.25 7.72266 82.6387 7.57812 83.0684 7.47266C83.502 7.36719 83.9492 7.31445 84.4102 7.31445ZM85.3594 10.9648L84.668 10.9883C84.0898 11.0039 83.6875 11.1074 83.4609 11.2988C83.2383 11.4902 83.127 11.7422 83.127 12.0547C83.127 12.3281 83.207 12.5234 83.3672 12.6406C83.5273 12.7539 83.7363 12.8105 83.9941 12.8105C84.377 12.8105 84.6992 12.6973 84.9609 12.4707C85.2266 12.2441 85.3594 11.9219 85.3594 11.5039V10.9648ZM91.7402 12.6934C91.9355 12.6934 92.125 12.6738 92.3086 12.6348C92.4961 12.5957 92.6816 12.5469 92.8652 12.4883V13.8184C92.6738 13.9043 92.4355 13.9746 92.1504 14.0293C91.8691 14.0879 91.5605 14.1172 91.2246 14.1172C90.834 14.1172 90.4824 14.0547 90.1699 13.9297C89.8613 13.8008 89.6172 13.5801 89.4375 13.2676C89.2617 12.9512 89.1738 12.5117 89.1738 11.9492V8.79102H88.3184V8.03516L89.3027 7.4375L89.8184 6.05469H90.9609V7.44922H92.7949V8.79102H90.9609V11.9492C90.9609 12.1992 91.0312 12.3867 91.1719 12.5117C91.3164 12.6328 91.5059 12.6934 91.7402 12.6934ZM100.148 10.7129C100.148 11.2598 100.074 11.7441 99.9258 12.166C99.7812 12.5879 99.5684 12.9453 99.2871 13.2383C99.0098 13.5273 98.6738 13.7461 98.2793 13.8945C97.8887 14.043 97.4473 14.1172 96.9551 14.1172C96.4941 14.1172 96.0703 14.043 95.6836 13.8945C95.3008 13.7461 94.9668 13.5273 94.6816 13.2383C94.4004 12.9453 94.1816 12.5879 94.0254 12.166C93.873 11.7441 93.7969 11.2598 93.7969 10.7129C93.7969 9.98633 93.9258 9.37109 94.1836 8.86719C94.4414 8.36328 94.8086 7.98047 95.2852 7.71875C95.7617 7.45703 96.3301 7.32617 96.9902 7.32617C97.6035 7.32617 98.1465 7.45703 98.6191 7.71875C99.0957 7.98047 99.4688 8.36328 99.7383 8.86719C100.012 9.37109 100.148 9.98633 100.148 10.7129ZM95.6191 10.7129C95.6191 11.1426 95.666 11.5039 95.7598 11.7969C95.8535 12.0898 96 12.3105 96.1992 12.459C96.3984 12.6074 96.6582 12.6816 96.9785 12.6816C97.2949 12.6816 97.5508 12.6074 97.7461 12.459C97.9453 12.3105 98.0898 12.0898 98.1797 11.7969C98.2734 11.5039 98.3203 11.1426 98.3203 10.7129C98.3203 10.2793 98.2734 9.91992 98.1797 9.63477C98.0898 9.3457 97.9453 9.12891 97.7461 8.98438C97.5469 8.83984 97.2871 8.76758 96.9668 8.76758C96.4941 8.76758 96.1504 8.92969 95.9355 9.25391C95.7246 9.57812 95.6191 10.0645 95.6191 10.7129Z" fill="#002E12"/>
<path d="M300.705 90L298.643 83.2793H298.59C298.598 83.4395 298.609 83.6816 298.625 84.0059C298.645 84.3262 298.662 84.668 298.678 85.0312C298.693 85.3945 298.701 85.7227 298.701 86.0156V90H297.078V81.4336H299.551L301.578 87.9844H301.613L303.764 81.4336H306.236V90H304.543V85.9453C304.543 85.6758 304.547 85.3652 304.555 85.0137C304.566 84.6621 304.58 84.3281 304.596 84.0117C304.611 83.6914 304.623 83.4512 304.631 83.291H304.578L302.369 90H300.705ZM310.959 83.3262C311.564 83.3262 312.086 83.4434 312.523 83.6777C312.961 83.9082 313.299 84.2441 313.537 84.6855C313.775 85.127 313.895 85.666 313.895 86.3027V87.1699H309.67C309.689 87.6738 309.84 88.0703 310.121 88.3594C310.406 88.6445 310.801 88.7871 311.305 88.7871C311.723 88.7871 312.105 88.7441 312.453 88.6582C312.801 88.5723 313.158 88.4434 313.525 88.2715V89.6543C313.201 89.8145 312.861 89.9316 312.506 90.0059C312.154 90.0801 311.727 90.1172 311.223 90.1172C310.566 90.1172 309.984 89.9961 309.477 89.7539C308.973 89.5117 308.576 89.1426 308.287 88.6465C308.002 88.1504 307.859 87.5254 307.859 86.7715C307.859 86.0059 307.988 85.3691 308.246 84.8613C308.508 84.3496 308.871 83.9668 309.336 83.7129C309.801 83.4551 310.342 83.3262 310.959 83.3262ZM310.971 84.5977C310.623 84.5977 310.334 84.709 310.104 84.9316C309.877 85.1543 309.746 85.5039 309.711 85.9805H312.219C312.215 85.7148 312.166 85.4785 312.072 85.2715C311.982 85.0645 311.846 84.9004 311.662 84.7793C311.482 84.6582 311.252 84.5977 310.971 84.5977ZM319.004 83.3262C319.094 83.3262 319.197 83.332 319.314 83.3438C319.436 83.3516 319.533 83.3633 319.607 83.3789L319.473 85.0547C319.414 85.0352 319.33 85.0215 319.221 85.0137C319.115 85.002 319.023 84.9961 318.945 84.9961C318.715 84.9961 318.49 85.0254 318.271 85.084C318.057 85.1426 317.863 85.2383 317.691 85.3711C317.52 85.5 317.383 85.6719 317.281 85.8867C317.184 86.0977 317.135 86.3574 317.135 86.666V90H315.348V83.4492H316.701L316.965 84.5508H317.053C317.182 84.3281 317.342 84.125 317.533 83.9414C317.729 83.7539 317.949 83.6055 318.195 83.4961C318.445 83.3828 318.715 83.3262 319.004 83.3262ZM322.713 92.8828C321.799 92.8828 321.1 92.7227 320.615 92.4023C320.135 92.0859 319.895 91.6406 319.895 91.0664C319.895 90.6719 320.018 90.3418 320.264 90.0762C320.51 89.8105 320.871 89.6211 321.348 89.5078C321.164 89.4297 321.004 89.3027 320.867 89.127C320.73 88.9473 320.662 88.7578 320.662 88.5586C320.662 88.3086 320.734 88.1016 320.879 87.9375C321.023 87.7695 321.232 87.6055 321.506 87.4453C321.162 87.2969 320.889 87.0586 320.686 86.7305C320.486 86.4023 320.387 86.0156 320.387 85.5703C320.387 85.0938 320.49 84.6895 320.697 84.3574C320.908 84.0215 321.213 83.7656 321.611 83.5898C322.014 83.4141 322.502 83.3262 323.076 83.3262C323.197 83.3262 323.338 83.334 323.498 83.3496C323.658 83.3652 323.805 83.3828 323.938 83.4023C324.074 83.4219 324.166 83.4375 324.213 83.4492H326.498V84.3574L325.473 84.6211C325.566 84.7656 325.637 84.9199 325.684 85.084C325.73 85.248 325.754 85.4219 325.754 85.6055C325.754 86.3086 325.508 86.8574 325.016 87.252C324.527 87.6426 323.848 87.8379 322.977 87.8379C322.77 87.8262 322.574 87.8105 322.391 87.791C322.301 87.8613 322.232 87.9355 322.186 88.0137C322.139 88.0918 322.115 88.1738 322.115 88.2598C322.115 88.3457 322.15 88.418 322.221 88.4766C322.295 88.5312 322.404 88.5742 322.549 88.6055C322.697 88.6328 322.881 88.6465 323.1 88.6465H324.213C324.932 88.6465 325.479 88.8008 325.854 89.1094C326.232 89.418 326.422 89.8711 326.422 90.4688C326.422 91.2344 326.102 91.8281 325.461 92.25C324.824 92.6719 323.908 92.8828 322.713 92.8828ZM322.789 91.7168C323.215 91.7168 323.58 91.6758 323.885 91.5938C324.193 91.5156 324.43 91.4023 324.594 91.2539C324.758 91.1094 324.84 90.9355 324.84 90.7324C324.84 90.5684 324.791 90.4375 324.693 90.3398C324.6 90.2461 324.455 90.1797 324.26 90.1406C324.068 90.1016 323.822 90.082 323.521 90.082H322.596C322.377 90.082 322.18 90.1172 322.004 90.1875C321.832 90.2578 321.695 90.3555 321.594 90.4805C321.492 90.6094 321.441 90.7578 321.441 90.9258C321.441 91.1719 321.559 91.3652 321.793 91.5059C322.031 91.6465 322.363 91.7168 322.789 91.7168ZM323.076 86.748C323.412 86.748 323.658 86.6445 323.814 86.4375C323.971 86.2305 324.049 85.9492 324.049 85.5938C324.049 85.1992 323.967 84.9043 323.803 84.709C323.643 84.5098 323.4 84.4102 323.076 84.4102C322.748 84.4102 322.502 84.5098 322.338 84.709C322.174 84.9043 322.092 85.1992 322.092 85.5938C322.092 85.9492 322.172 86.2305 322.332 86.4375C322.496 86.6445 322.744 86.748 323.076 86.748ZM333.594 83.4492V90H332.223L331.982 89.1621H331.889C331.748 89.3848 331.572 89.5664 331.361 89.707C331.15 89.8477 330.918 89.9512 330.664 90.0176C330.41 90.084 330.146 90.1172 329.873 90.1172C329.404 90.1172 328.996 90.0352 328.648 89.8711C328.301 89.7031 328.029 89.4434 327.834 89.0918C327.643 88.7402 327.547 88.2832 327.547 87.7207V83.4492H329.334V87.2754C329.334 87.7441 329.418 88.0977 329.586 88.3359C329.754 88.5742 330.021 88.6934 330.389 88.6934C330.752 88.6934 331.037 88.6113 331.244 88.4473C331.451 88.2793 331.596 88.0352 331.678 87.7148C331.764 87.3906 331.807 86.9961 331.807 86.5312V83.4492H333.594ZM337.256 90H335.469V80.8828H337.256V90ZM340.924 80.8828V82.7402C340.924 83.0645 340.912 83.373 340.889 83.666C340.869 83.959 340.854 84.166 340.842 84.2871H340.936C341.076 84.0605 341.242 83.877 341.434 83.7363C341.629 83.5957 341.844 83.4922 342.078 83.4258C342.312 83.3594 342.564 83.3262 342.834 83.3262C343.307 83.3262 343.719 83.4102 344.07 83.5781C344.422 83.7422 344.695 84.002 344.891 84.3574C345.086 84.709 345.184 85.166 345.184 85.7285V90H343.396V86.1738C343.396 85.7051 343.311 85.3516 343.139 85.1133C342.967 84.875 342.701 84.7559 342.342 84.7559C341.982 84.7559 341.699 84.8398 341.492 85.0078C341.285 85.1719 341.139 85.416 341.053 85.7402C340.967 86.0605 340.924 86.4531 340.924 86.918V90H339.137V80.8828H340.924ZM352.977 86.7129C352.977 87.2598 352.902 87.7441 352.754 88.166C352.609 88.5879 352.396 88.9453 352.115 89.2383C351.838 89.5273 351.502 89.7461 351.107 89.8945C350.717 90.043 350.275 90.1172 349.783 90.1172C349.322 90.1172 348.898 90.043 348.512 89.8945C348.129 89.7461 347.795 89.5273 347.51 89.2383C347.229 88.9453 347.01 88.5879 346.854 88.166C346.701 87.7441 346.625 87.2598 346.625 86.7129C346.625 85.9863 346.754 85.3711 347.012 84.8672C347.27 84.3633 347.637 83.9805 348.113 83.7188C348.59 83.457 349.158 83.3262 349.818 83.3262C350.432 83.3262 350.975 83.457 351.447 83.7188C351.924 83.9805 352.297 84.3633 352.566 84.8672C352.84 85.3711 352.977 85.9863 352.977 86.7129ZM348.447 86.7129C348.447 87.1426 348.494 87.5039 348.588 87.7969C348.682 88.0898 348.828 88.3105 349.027 88.459C349.227 88.6074 349.486 88.6816 349.807 88.6816C350.123 88.6816 350.379 88.6074 350.574 88.459C350.773 88.3105 350.918 88.0898 351.008 87.7969C351.102 87.5039 351.148 87.1426 351.148 86.7129C351.148 86.2793 351.102 85.9199 351.008 85.6348C350.918 85.3457 350.773 85.1289 350.574 84.9844C350.375 84.8398 350.115 84.7676 349.795 84.7676C349.322 84.7676 348.979 84.9297 348.764 85.2539C348.553 85.5781 348.447 86.0645 348.447 86.7129Z" fill="#002E12"/>
<path d="M7.13477 73.6211C7.13477 74.1289 7.01172 74.5703 6.76562 74.9453C6.51953 75.3203 6.16016 75.6094 5.6875 75.8125C5.21875 76.0156 4.64844 76.1172 3.97656 76.1172C3.67969 76.1172 3.38867 76.0977 3.10352 76.0586C2.82227 76.0195 2.55078 75.9629 2.28906 75.8887C2.03125 75.8105 1.78516 75.7148 1.55078 75.6016V73.9141C1.95703 74.0938 2.37891 74.2559 2.81641 74.4004C3.25391 74.5449 3.6875 74.6172 4.11719 74.6172C4.41406 74.6172 4.65234 74.5781 4.83203 74.5C5.01562 74.4219 5.14844 74.3145 5.23047 74.1777C5.3125 74.041 5.35352 73.8848 5.35352 73.709C5.35352 73.4941 5.28125 73.3105 5.13672 73.1582C4.99219 73.0059 4.79297 72.8633 4.53906 72.7305C4.28906 72.5977 4.00586 72.4551 3.68945 72.3027C3.49023 72.209 3.27344 72.0957 3.03906 71.9629C2.80469 71.8262 2.58203 71.6602 2.37109 71.4648C2.16016 71.2695 1.98633 71.0332 1.84961 70.7559C1.7168 70.4746 1.65039 70.1387 1.65039 69.748C1.65039 69.2363 1.76758 68.7988 2.00195 68.4355C2.23633 68.0723 2.57031 67.7949 3.00391 67.6035C3.44141 67.4082 3.95703 67.3105 4.55078 67.3105C4.99609 67.3105 5.41992 67.3633 5.82227 67.4688C6.22852 67.5703 6.65234 67.7188 7.09375 67.9141L6.50781 69.3262C6.11328 69.166 5.75977 69.043 5.44727 68.957C5.13477 68.8672 4.81641 68.8223 4.49219 68.8223C4.26562 68.8223 4.07227 68.8594 3.91211 68.9336C3.75195 69.0039 3.63086 69.1055 3.54883 69.2383C3.4668 69.3672 3.42578 69.5176 3.42578 69.6895C3.42578 69.8926 3.48438 70.0645 3.60156 70.2051C3.72266 70.3418 3.90234 70.4746 4.14062 70.6035C4.38281 70.7324 4.68359 70.8828 5.04297 71.0547C5.48047 71.2617 5.85352 71.4785 6.16211 71.7051C6.47461 71.9277 6.71484 72.1914 6.88281 72.4961C7.05078 72.7969 7.13477 73.1719 7.13477 73.6211ZM14.5586 69.4492V76H13.1875L12.9473 75.1621H12.8535C12.7129 75.3848 12.5371 75.5664 12.3262 75.707C12.1152 75.8477 11.8828 75.9512 11.6289 76.0176C11.375 76.084 11.1113 76.1172 10.8379 76.1172C10.3691 76.1172 9.96094 76.0352 9.61328 75.8711C9.26562 75.7031 8.99414 75.4434 8.79883 75.0918C8.60742 74.7402 8.51172 74.2832 8.51172 73.7207V69.4492H10.2988V73.2754C10.2988 73.7441 10.3828 74.0977 10.5508 74.3359C10.7188 74.5742 10.9863 74.6934 11.3535 74.6934C11.7168 74.6934 12.002 74.6113 12.209 74.4473C12.416 74.2793 12.5605 74.0352 12.6426 73.7148C12.7285 73.3906 12.7715 72.9961 12.7715 72.5312V69.4492H14.5586ZM18.2207 66.8828V69.0039C18.2207 69.25 18.2129 69.4941 18.1973 69.7363C18.1855 69.9785 18.1699 70.166 18.1504 70.2988H18.2207C18.3926 70.0293 18.627 69.8008 18.9238 69.6133C19.2207 69.4219 19.6055 69.3262 20.0781 69.3262C20.8125 69.3262 21.4082 69.6133 21.8652 70.1875C22.3223 70.7617 22.5508 71.6035 22.5508 72.7129C22.5508 73.459 22.4453 74.0859 22.2344 74.5938C22.0234 75.0977 21.7285 75.4785 21.3496 75.7363C20.9707 75.9902 20.5312 76.1172 20.0312 76.1172C19.5508 76.1172 19.1719 76.0312 18.8945 75.8594C18.6172 75.6875 18.3926 75.4941 18.2207 75.2793H18.0977L17.7988 76H16.4336V66.8828H18.2207ZM19.5039 70.7559C19.1914 70.7559 18.9434 70.8203 18.7598 70.9492C18.5762 71.0781 18.4414 71.2715 18.3555 71.5293C18.2734 71.7871 18.2285 72.1133 18.2207 72.5078V72.7012C18.2207 73.3379 18.3145 73.8262 18.502 74.166C18.6895 74.502 19.0312 74.6699 19.5273 74.6699C19.8945 74.6699 20.1855 74.5 20.4004 74.1602C20.6191 73.8203 20.7285 73.3301 20.7285 72.6895C20.7285 72.0488 20.6191 71.5664 20.4004 71.2422C20.1816 70.918 19.8828 70.7559 19.5039 70.7559ZM25.8145 69.4492V76H24.0273V69.4492H25.8145ZM24.9238 66.8828C25.1895 66.8828 25.418 66.9453 25.6094 67.0703C25.8008 67.1914 25.8965 67.4199 25.8965 67.7559C25.8965 68.0879 25.8008 68.3184 25.6094 68.4473C25.418 68.5723 25.1895 68.6348 24.9238 68.6348C24.6543 68.6348 24.4238 68.5723 24.2324 68.4473C24.0449 68.3184 23.9512 68.0879 23.9512 67.7559C23.9512 67.4199 24.0449 67.1914 24.2324 67.0703C24.4238 66.9453 24.6543 66.8828 24.9238 66.8828ZM29.7695 76.1172C29.0391 76.1172 28.4434 75.832 27.9824 75.2617C27.5254 74.6875 27.2969 73.8457 27.2969 72.7363C27.2969 71.6152 27.5293 70.7676 27.9941 70.1934C28.459 69.6152 29.0664 69.3262 29.8164 69.3262C30.1289 69.3262 30.4043 69.3691 30.6426 69.4551C30.8809 69.541 31.0859 69.6562 31.2578 69.8008C31.4336 69.9453 31.582 70.1074 31.7031 70.2871H31.7617C31.7383 70.1621 31.709 69.9785 31.6738 69.7363C31.6426 69.4902 31.627 69.2383 31.627 68.9805V66.8828H33.4199V76H32.0488L31.7031 75.1504H31.627C31.5137 75.3301 31.3711 75.4941 31.1992 75.6426C31.0312 75.7871 30.8301 75.9023 30.5957 75.9883C30.3613 76.0742 30.0859 76.1172 29.7695 76.1172ZM30.3965 74.6934C30.8848 74.6934 31.2285 74.5488 31.4277 74.2598C31.6309 73.9668 31.7383 73.5273 31.75 72.9414V72.748C31.75 72.1113 31.6523 71.625 31.457 71.2891C31.2617 70.9492 30.8984 70.7793 30.3672 70.7793C29.9727 70.7793 29.6641 70.9492 29.4414 71.2891C29.2188 71.6289 29.1074 72.1191 29.1074 72.7598C29.1074 73.4004 29.2188 73.8828 29.4414 74.207C29.668 74.5312 29.9863 74.6934 30.3965 74.6934ZM37.9727 69.3145C38.8516 69.3145 39.5254 69.5059 39.9941 69.8887C40.4629 70.2715 40.6973 70.8535 40.6973 71.6348V76H39.4492L39.1035 75.1094H39.0566C38.8691 75.3438 38.6777 75.5352 38.4824 75.6836C38.2871 75.832 38.0625 75.9414 37.8086 76.0117C37.5547 76.082 37.2461 76.1172 36.8828 76.1172C36.4961 76.1172 36.1484 76.043 35.8398 75.8945C35.5352 75.7461 35.2949 75.5195 35.1191 75.2148C34.9434 74.9062 34.8555 74.5156 34.8555 74.043C34.8555 73.3477 35.0996 72.8359 35.5879 72.5078C36.0762 72.1758 36.8086 71.9922 37.7852 71.957L38.9219 71.9219V71.6348C38.9219 71.291 38.832 71.0391 38.6523 70.8789C38.4727 70.7188 38.2227 70.6387 37.9023 70.6387C37.5859 70.6387 37.2754 70.6836 36.9707 70.7734C36.666 70.8633 36.3613 70.9766 36.0566 71.1133L35.4648 69.9062C35.8125 69.7227 36.2012 69.5781 36.6309 69.4727C37.0645 69.3672 37.5117 69.3145 37.9727 69.3145ZM38.9219 72.9648L38.2305 72.9883C37.6523 73.0039 37.25 73.1074 37.0234 73.2988C36.8008 73.4902 36.6895 73.7422 36.6895 74.0547C36.6895 74.3281 36.7695 74.5234 36.9297 74.6406C37.0898 74.7539 37.2988 74.8105 37.5566 74.8105C37.9395 74.8105 38.2617 74.6973 38.5234 74.4707C38.7891 74.2441 38.9219 73.9219 38.9219 73.5039V72.9648Z" fill="#002E12"/>
<path d="M4.62109 83.3145C5.5 83.3145 6.17383 83.5059 6.64258 83.8887C7.11133 84.2715 7.3457 84.8535 7.3457 85.6348V90H6.09766L5.75195 89.1094H5.70508C5.51758 89.3438 5.32617 89.5352 5.13086 89.6836C4.93555 89.832 4.71094 89.9414 4.45703 90.0117C4.20312 90.082 3.89453 90.1172 3.53125 90.1172C3.14453 90.1172 2.79688 90.043 2.48828 89.8945C2.18359 89.7461 1.94336 89.5195 1.76758 89.2148C1.5918 88.9062 1.50391 88.5156 1.50391 88.043C1.50391 87.3477 1.74805 86.8359 2.23633 86.5078C2.72461 86.1758 3.45703 85.9922 4.43359 85.957L5.57031 85.9219V85.6348C5.57031 85.291 5.48047 85.0391 5.30078 84.8789C5.12109 84.7188 4.87109 84.6387 4.55078 84.6387C4.23438 84.6387 3.92383 84.6836 3.61914 84.7734C3.31445 84.8633 3.00977 84.9766 2.70508 85.1133L2.11328 83.9062C2.46094 83.7227 2.84961 83.5781 3.2793 83.4727C3.71289 83.3672 4.16016 83.3145 4.62109 83.3145ZM5.57031 86.9648L4.87891 86.9883C4.30078 87.0039 3.89844 87.1074 3.67188 87.2988C3.44922 87.4902 3.33789 87.7422 3.33789 88.0547C3.33789 88.3281 3.41797 88.5234 3.57812 88.6406C3.73828 88.7539 3.94727 88.8105 4.20508 88.8105C4.58789 88.8105 4.91016 88.6973 5.17188 88.4707C5.4375 88.2441 5.57031 87.9219 5.57031 87.5039V86.9648ZM15.1445 86.7129C15.1445 87.2598 15.0703 87.7441 14.9219 88.166C14.7773 88.5879 14.5645 88.9453 14.2832 89.2383C14.0059 89.5273 13.6699 89.7461 13.2754 89.8945C12.8848 90.043 12.4434 90.1172 11.9512 90.1172C11.4902 90.1172 11.0664 90.043 10.6797 89.8945C10.2969 89.7461 9.96289 89.5273 9.67773 89.2383C9.39648 88.9453 9.17773 88.5879 9.02148 88.166C8.86914 87.7441 8.79297 87.2598 8.79297 86.7129C8.79297 85.9863 8.92188 85.3711 9.17969 84.8672C9.4375 84.3633 9.80469 83.9805 10.2812 83.7188C10.7578 83.457 11.3262 83.3262 11.9863 83.3262C12.5996 83.3262 13.1426 83.457 13.6152 83.7188C14.0918 83.9805 14.4648 84.3633 14.7344 84.8672C15.0078 85.3711 15.1445 85.9863 15.1445 86.7129ZM10.6152 86.7129C10.6152 87.1426 10.6621 87.5039 10.7559 87.7969C10.8496 88.0898 10.9961 88.3105 11.1953 88.459C11.3945 88.6074 11.6543 88.6816 11.9746 88.6816C12.291 88.6816 12.5469 88.6074 12.7422 88.459C12.9414 88.3105 13.0859 88.0898 13.1758 87.7969C13.2695 87.5039 13.3164 87.1426 13.3164 86.7129C13.3164 86.2793 13.2695 85.9199 13.1758 85.6348C13.0859 85.3457 12.9414 85.1289 12.7422 84.9844C12.543 84.8398 12.2832 84.7676 11.9629 84.7676C11.4902 84.7676 11.1465 84.9297 10.9316 85.2539C10.7207 85.5781 10.6152 86.0645 10.6152 86.7129ZM21.1914 88.0547C21.1914 88.5 21.0859 88.877 20.875 89.1855C20.668 89.4902 20.3574 89.7227 19.9434 89.8828C19.5293 90.0391 19.0137 90.1172 18.3965 90.1172C17.9395 90.1172 17.5469 90.0879 17.2188 90.0293C16.8945 89.9707 16.5664 89.873 16.2344 89.7363V88.2598C16.5898 88.4199 16.9707 88.5527 17.377 88.6582C17.7871 88.7598 18.1465 88.8105 18.4551 88.8105C18.8027 88.8105 19.0508 88.7598 19.1992 88.6582C19.3516 88.5527 19.4277 88.416 19.4277 88.248C19.4277 88.1387 19.3965 88.041 19.334 87.9551C19.2754 87.8652 19.1465 87.7656 18.9473 87.6562C18.748 87.543 18.4355 87.3965 18.0098 87.2168C17.5996 87.0449 17.2617 86.8711 16.9961 86.6953C16.7344 86.5195 16.5391 86.3125 16.4102 86.0742C16.2852 85.832 16.2227 85.5254 16.2227 85.1543C16.2227 84.5488 16.457 84.0938 16.9258 83.7891C17.3984 83.4805 18.0293 83.3262 18.8184 83.3262C19.2246 83.3262 19.6113 83.3672 19.9785 83.4492C20.3496 83.5312 20.7305 83.6621 21.1211 83.8418L20.582 85.1309C20.2578 84.9902 19.9512 84.875 19.6621 84.7852C19.377 84.6953 19.0859 84.6504 18.7891 84.6504C18.5273 84.6504 18.3301 84.6855 18.1973 84.7559C18.0645 84.8262 17.998 84.9336 17.998 85.0781C17.998 85.1836 18.0312 85.2773 18.0977 85.3594C18.168 85.4414 18.3008 85.5332 18.4961 85.6348C18.6953 85.7324 18.9863 85.8594 19.3691 86.0156C19.7402 86.168 20.0625 86.3281 20.3359 86.4961C20.6094 86.6602 20.8203 86.8652 20.9688 87.1113C21.1172 87.3535 21.1914 87.668 21.1914 88.0547ZM25.8438 81.4336H28.5098C29.6504 81.4336 30.5137 81.5938 31.0996 81.9141C31.6855 82.2344 31.9785 82.7969 31.9785 83.6016C31.9785 83.9258 31.9258 84.2188 31.8203 84.4805C31.7188 84.7422 31.5703 84.957 31.375 85.125C31.1797 85.293 30.9414 85.4023 30.6602 85.4531V85.5117C30.9453 85.5703 31.2031 85.6719 31.4336 85.8164C31.6641 85.957 31.8477 86.1641 31.9844 86.4375C32.125 86.707 32.1953 87.0664 32.1953 87.5156C32.1953 88.0352 32.0684 88.4805 31.8145 88.8516C31.5605 89.2227 31.1973 89.5078 30.7246 89.707C30.2559 89.9023 29.6973 90 29.0488 90H25.8438V81.4336ZM27.6602 84.8262H28.7148C29.2422 84.8262 29.6074 84.7441 29.8105 84.5801C30.0137 84.4121 30.1152 84.166 30.1152 83.8418C30.1152 83.5137 29.9941 83.2793 29.752 83.1387C29.5137 82.9941 29.1348 82.9219 28.6152 82.9219H27.6602V84.8262ZM27.6602 86.2676V88.5H28.8438C29.3906 88.5 29.7715 88.3945 29.9863 88.1836C30.2012 87.9727 30.3086 87.6895 30.3086 87.334C30.3086 87.123 30.2617 86.9375 30.168 86.7773C30.0742 86.6172 29.916 86.4922 29.6934 86.4023C29.4746 86.3125 29.1719 86.2676 28.7852 86.2676H27.6602ZM39.7188 86.7129C39.7188 87.2598 39.6445 87.7441 39.4961 88.166C39.3516 88.5879 39.1387 88.9453 38.8574 89.2383C38.5801 89.5273 38.2441 89.7461 37.8496 89.8945C37.459 90.043 37.0176 90.1172 36.5254 90.1172C36.0645 90.1172 35.6406 90.043 35.2539 89.8945C34.8711 89.7461 34.5371 89.5273 34.252 89.2383C33.9707 88.9453 33.752 88.5879 33.5957 88.166C33.4434 87.7441 33.3672 87.2598 33.3672 86.7129C33.3672 85.9863 33.4961 85.3711 33.7539 84.8672C34.0117 84.3633 34.3789 83.9805 34.8555 83.7188C35.332 83.457 35.9004 83.3262 36.5605 83.3262C37.1738 83.3262 37.7168 83.457 38.1895 83.7188C38.666 83.9805 39.0391 84.3633 39.3086 84.8672C39.582 85.3711 39.7188 85.9863 39.7188 86.7129ZM35.1895 86.7129C35.1895 87.1426 35.2363 87.5039 35.3301 87.7969C35.4238 88.0898 35.5703 88.3105 35.7695 88.459C35.9688 88.6074 36.2285 88.6816 36.5488 88.6816C36.8652 88.6816 37.1211 88.6074 37.3164 88.459C37.5156 88.3105 37.6602 88.0898 37.75 87.7969C37.8438 87.5039 37.8906 87.1426 37.8906 86.7129C37.8906 86.2793 37.8438 85.9199 37.75 85.6348C37.6602 85.3457 37.5156 85.1289 37.3164 84.9844C37.1172 84.8398 36.8574 84.7676 36.5371 84.7676C36.0645 84.7676 35.7207 84.9297 35.5059 85.2539C35.2949 85.5781 35.1895 86.0645 35.1895 86.7129ZM42.5371 86.6543L40.4277 83.4492H42.4551L43.7266 85.5352L45.0098 83.4492H47.0371L44.9043 86.6543L47.1367 90H45.1035L43.7266 87.7559L42.3438 90H40.3164L42.5371 86.6543ZM50.834 83.3262C51.4395 83.3262 51.9609 83.4434 52.3984 83.6777C52.8359 83.9082 53.1738 84.2441 53.4121 84.6855C53.6504 85.127 53.7695 85.666 53.7695 86.3027V87.1699H49.5449C49.5645 87.6738 49.7148 88.0703 49.9961 88.3594C50.2812 88.6445 50.6758 88.7871 51.1797 88.7871C51.5977 88.7871 51.9805 88.7441 52.3281 88.6582C52.6758 88.5723 53.0332 88.4434 53.4004 88.2715V89.6543C53.0762 89.8145 52.7363 89.9316 52.3809 90.0059C52.0293 90.0801 51.6016 90.1172 51.0977 90.1172C50.4414 90.1172 49.8594 89.9961 49.3516 89.7539C48.8477 89.5117 48.4512 89.1426 48.1621 88.6465C47.877 88.1504 47.7344 87.5254 47.7344 86.7715C47.7344 86.0059 47.8633 85.3691 48.1211 84.8613C48.3828 84.3496 48.7461 83.9668 49.2109 83.7129C49.6758 83.4551 50.2168 83.3262 50.834 83.3262ZM50.8457 84.5977C50.498 84.5977 50.209 84.709 49.9785 84.9316C49.752 85.1543 49.6211 85.5039 49.5859 85.9805H52.0938C52.0898 85.7148 52.041 85.4785 51.9473 85.2715C51.8574 85.0645 51.7207 84.9004 51.5371 84.7793C51.3574 84.6582 51.127 84.5977 50.8457 84.5977ZM59.793 88.0547C59.793 88.5 59.6875 88.877 59.4766 89.1855C59.2695 89.4902 58.959 89.7227 58.5449 89.8828C58.1309 90.0391 57.6152 90.1172 56.998 90.1172C56.541 90.1172 56.1484 90.0879 55.8203 90.0293C55.4961 89.9707 55.168 89.873 54.8359 89.7363V88.2598C55.1914 88.4199 55.5723 88.5527 55.9785 88.6582C56.3887 88.7598 56.748 88.8105 57.0566 88.8105C57.4043 88.8105 57.6523 88.7598 57.8008 88.6582C57.9531 88.5527 58.0293 88.416 58.0293 88.248C58.0293 88.1387 57.998 88.041 57.9355 87.9551C57.877 87.8652 57.748 87.7656 57.5488 87.6562C57.3496 87.543 57.0371 87.3965 56.6113 87.2168C56.2012 87.0449 55.8633 86.8711 55.5977 86.6953C55.3359 86.5195 55.1406 86.3125 55.0117 86.0742C54.8867 85.832 54.8242 85.5254 54.8242 85.1543C54.8242 84.5488 55.0586 84.0938 55.5273 83.7891C56 83.4805 56.6309 83.3262 57.4199 83.3262C57.8262 83.3262 58.2129 83.3672 58.5801 83.4492C58.9512 83.5312 59.332 83.6621 59.7227 83.8418L59.1836 85.1309C58.8594 84.9902 58.5527 84.875 58.2637 84.7852C57.9785 84.6953 57.6875 84.6504 57.3906 84.6504C57.1289 84.6504 56.9316 84.6855 56.7988 84.7559C56.666 84.8262 56.5996 84.9336 56.5996 85.0781C56.5996 85.1836 56.6328 85.2773 56.6992 85.3594C56.7695 85.4414 56.9023 85.5332 57.0977 85.6348C57.2969 85.7324 57.5879 85.8594 57.9707 86.0156C58.3418 86.168 58.6641 86.3281 58.9375 86.4961C59.2109 86.6602 59.4219 86.8652 59.5703 87.1113C59.7188 87.3535 59.793 87.668 59.793 88.0547Z" fill="#002E12"/>
<path d="M4.38086 206.434C5.1582 206.434 5.79883 206.527 6.30273 206.715C6.81055 206.902 7.1875 207.186 7.43359 207.564C7.67969 207.943 7.80273 208.422 7.80273 209C7.80273 209.391 7.72852 209.732 7.58008 210.025C7.43164 210.318 7.23633 210.566 6.99414 210.77C6.75195 210.973 6.49023 211.139 6.20898 211.268L8.72852 215H6.71289L4.66797 211.713H3.70117V215H1.88477V206.434H4.38086ZM4.25195 207.922H3.70117V210.236H4.28711C4.88867 210.236 5.31836 210.137 5.57617 209.938C5.83789 209.734 5.96875 209.438 5.96875 209.047C5.96875 208.641 5.82812 208.352 5.54688 208.18C5.26953 208.008 4.83789 207.922 4.25195 207.922ZM12.3672 208.326C12.9727 208.326 13.4941 208.443 13.9316 208.678C14.3691 208.908 14.707 209.244 14.9453 209.686C15.1836 210.127 15.3027 210.666 15.3027 211.303V212.17H11.0781C11.0977 212.674 11.248 213.07 11.5293 213.359C11.8145 213.645 12.209 213.787 12.7129 213.787C13.1309 213.787 13.5137 213.744 13.8613 213.658C14.209 213.572 14.5664 213.443 14.9336 213.271V214.654C14.6094 214.814 14.2695 214.932 13.9141 215.006C13.5625 215.08 13.1348 215.117 12.6309 215.117C11.9746 215.117 11.3926 214.996 10.8848 214.754C10.3809 214.512 9.98438 214.143 9.69531 213.646C9.41016 213.15 9.26758 212.525 9.26758 211.771C9.26758 211.006 9.39648 210.369 9.6543 209.861C9.91602 209.35 10.2793 208.967 10.7441 208.713C11.209 208.455 11.75 208.326 12.3672 208.326ZM12.3789 209.598C12.0312 209.598 11.7422 209.709 11.5117 209.932C11.2852 210.154 11.1543 210.504 11.1191 210.98H13.627C13.623 210.715 13.5742 210.479 13.4805 210.271C13.3906 210.064 13.2539 209.9 13.0703 209.779C12.8906 209.658 12.6602 209.598 12.3789 209.598ZM19.5156 213.693C19.7109 213.693 19.9004 213.674 20.084 213.635C20.2715 213.596 20.457 213.547 20.6406 213.488V214.818C20.4492 214.904 20.2109 214.975 19.9258 215.029C19.6445 215.088 19.3359 215.117 19 215.117C18.6094 215.117 18.2578 215.055 17.9453 214.93C17.6367 214.801 17.3926 214.58 17.2129 214.268C17.0371 213.951 16.9492 213.512 16.9492 212.949V209.791H16.0938V209.035L17.0781 208.438L17.5938 207.055H18.7363V208.449H20.5703V209.791H18.7363V212.949C18.7363 213.199 18.8066 213.387 18.9473 213.512C19.0918 213.633 19.2812 213.693 19.5156 213.693ZM24.6543 208.314C25.5332 208.314 26.207 208.506 26.6758 208.889C27.1445 209.271 27.3789 209.854 27.3789 210.635V215H26.1309L25.7852 214.109H25.7383C25.5508 214.344 25.3594 214.535 25.1641 214.684C24.9688 214.832 24.7441 214.941 24.4902 215.012C24.2363 215.082 23.9277 215.117 23.5645 215.117C23.1777 215.117 22.8301 215.043 22.5215 214.895C22.2168 214.746 21.9766 214.52 21.8008 214.215C21.625 213.906 21.5371 213.516 21.5371 213.043C21.5371 212.348 21.7812 211.836 22.2695 211.508C22.7578 211.176 23.4902 210.992 24.4668 210.957L25.6035 210.922V210.635C25.6035 210.291 25.5137 210.039 25.334 209.879C25.1543 209.719 24.9043 209.639 24.584 209.639C24.2676 209.639 23.957 209.684 23.6523 209.773C23.3477 209.863 23.043 209.977 22.7383 210.113L22.1465 208.906C22.4941 208.723 22.8828 208.578 23.3125 208.473C23.7461 208.367 24.1934 208.314 24.6543 208.314ZM25.6035 211.965L24.9121 211.988C24.334 212.004 23.9316 212.107 23.7051 212.299C23.4824 212.49 23.3711 212.742 23.3711 213.055C23.3711 213.328 23.4512 213.523 23.6113 213.641C23.7715 213.754 23.9805 213.811 24.2383 213.811C24.6211 213.811 24.9434 213.697 25.2051 213.471C25.4707 213.244 25.6035 212.922 25.6035 212.504V211.965ZM34.416 215.117C33.6855 215.117 33.0898 214.832 32.6289 214.262C32.1719 213.688 31.9434 212.846 31.9434 211.736C31.9434 210.615 32.1758 209.768 32.6406 209.193C33.1055 208.615 33.7129 208.326 34.4629 208.326C34.7754 208.326 35.0508 208.369 35.2891 208.455C35.5273 208.541 35.7324 208.656 35.9043 208.801C36.0801 208.945 36.2285 209.107 36.3496 209.287H36.4082C36.3848 209.162 36.3555 208.979 36.3203 208.736C36.2891 208.49 36.2734 208.238 36.2734 207.98V205.883H38.0664V215H36.6953L36.3496 214.15H36.2734C36.1602 214.33 36.0176 214.494 35.8457 214.643C35.6777 214.787 35.4766 214.902 35.2422 214.988C35.0078 215.074 34.7324 215.117 34.416 215.117ZM35.043 213.693C35.5312 213.693 35.875 213.549 36.0742 213.26C36.2773 212.967 36.3848 212.527 36.3965 211.941V211.748C36.3965 211.111 36.2988 210.625 36.1035 210.289C35.9082 209.949 35.5449 209.779 35.0137 209.779C34.6191 209.779 34.3105 209.949 34.0879 210.289C33.8652 210.629 33.7539 211.119 33.7539 211.76C33.7539 212.4 33.8652 212.883 34.0879 213.207C34.3145 213.531 34.6328 213.693 35.043 213.693ZM42.6367 208.326C43.2422 208.326 43.7637 208.443 44.2012 208.678C44.6387 208.908 44.9766 209.244 45.2148 209.686C45.4531 210.127 45.5723 210.666 45.5723 211.303V212.17H41.3477C41.3672 212.674 41.5176 213.07 41.7988 213.359C42.084 213.645 42.4785 213.787 42.9824 213.787C43.4004 213.787 43.7832 213.744 44.1309 213.658C44.4785 213.572 44.8359 213.443 45.2031 213.271V214.654C44.8789 214.814 44.5391 214.932 44.1836 215.006C43.832 215.08 43.4043 215.117 42.9004 215.117C42.2441 215.117 41.6621 214.996 41.1543 214.754C40.6504 214.512 40.2539 214.143 39.9648 213.646C39.6797 213.15 39.5371 212.525 39.5371 211.771C39.5371 211.006 39.666 210.369 39.9238 209.861C40.1855 209.35 40.5488 208.967 41.0137 208.713C41.4785 208.455 42.0195 208.326 42.6367 208.326ZM42.6484 209.598C42.3008 209.598 42.0117 209.709 41.7812 209.932C41.5547 210.154 41.4238 210.504 41.3887 210.98H43.8965C43.8926 210.715 43.8438 210.479 43.75 210.271C43.6602 210.064 43.5234 209.9 43.3398 209.779C43.1602 209.658 42.9297 209.598 42.6484 209.598Z" fill="#002E12"/>
<path d="M1.9043 229V220.434H3.7207V227.5H7.19531V229H1.9043ZM11.2324 222.314C12.1113 222.314 12.7852 222.506 13.2539 222.889C13.7227 223.271 13.957 223.854 13.957 224.635V229H12.709L12.3633 228.109H12.3164C12.1289 228.344 11.9375 228.535 11.7422 228.684C11.5469 228.832 11.3223 228.941 11.0684 229.012C10.8145 229.082 10.5059 229.117 10.1426 229.117C9.75586 229.117 9.4082 229.043 9.09961 228.895C8.79492 228.746 8.55469 228.52 8.37891 228.215C8.20312 227.906 8.11523 227.516 8.11523 227.043C8.11523 226.348 8.35938 225.836 8.84766 225.508C9.33594 225.176 10.0684 224.992 11.0449 224.957L12.1816 224.922V224.635C12.1816 224.291 12.0918 224.039 11.9121 223.879C11.7324 223.719 11.4824 223.639 11.1621 223.639C10.8457 223.639 10.5352 223.684 10.2305 223.773C9.92578 223.863 9.62109 223.977 9.31641 224.113L8.72461 222.906C9.07227 222.723 9.46094 222.578 9.89062 222.473C10.3242 222.367 10.7715 222.314 11.2324 222.314ZM12.1816 225.965L11.4902 225.988C10.9121 226.004 10.5098 226.107 10.2832 226.299C10.0605 226.49 9.94922 226.742 9.94922 227.055C9.94922 227.328 10.0293 227.523 10.1895 227.641C10.3496 227.754 10.5586 227.811 10.8164 227.811C11.1992 227.811 11.5215 227.697 11.7832 227.471C12.0488 227.244 12.1816 226.922 12.1816 226.504V225.965ZM19.459 222.326C19.5488 222.326 19.6523 222.332 19.7695 222.344C19.8906 222.352 19.9883 222.363 20.0625 222.379L19.9277 224.055C19.8691 224.035 19.7852 224.021 19.6758 224.014C19.5703 224.002 19.4785 223.996 19.4004 223.996C19.1699 223.996 18.9453 224.025 18.7266 224.084C18.5117 224.143 18.3184 224.238 18.1465 224.371C17.9746 224.5 17.8379 224.672 17.7363 224.887C17.6387 225.098 17.5898 225.357 17.5898 225.666V229H15.8027V222.449H17.1562L17.4199 223.551H17.5078C17.6367 223.328 17.7969 223.125 17.9883 222.941C18.1836 222.754 18.4043 222.605 18.6504 222.496C18.9004 222.383 19.1699 222.326 19.459 222.326ZM23.168 231.883C22.2539 231.883 21.5547 231.723 21.0703 231.402C20.5898 231.086 20.3496 230.641 20.3496 230.066C20.3496 229.672 20.4727 229.342 20.7188 229.076C20.9648 228.811 21.3262 228.621 21.8027 228.508C21.6191 228.43 21.459 228.303 21.3223 228.127C21.1855 227.947 21.1172 227.758 21.1172 227.559C21.1172 227.309 21.1895 227.102 21.334 226.938C21.4785 226.77 21.6875 226.605 21.9609 226.445C21.6172 226.297 21.3438 226.059 21.1406 225.73C20.9414 225.402 20.8418 225.016 20.8418 224.57C20.8418 224.094 20.9453 223.689 21.1523 223.357C21.3633 223.021 21.668 222.766 22.0664 222.59C22.4688 222.414 22.957 222.326 23.5312 222.326C23.6523 222.326 23.793 222.334 23.9531 222.35C24.1133 222.365 24.2598 222.383 24.3926 222.402C24.5293 222.422 24.6211 222.438 24.668 222.449H26.9531V223.357L25.9277 223.621C26.0215 223.766 26.0918 223.92 26.1387 224.084C26.1855 224.248 26.209 224.422 26.209 224.605C26.209 225.309 25.9629 225.857 25.4707 226.252C24.9824 226.643 24.3027 226.838 23.4316 226.838C23.2246 226.826 23.0293 226.811 22.8457 226.791C22.7559 226.861 22.6875 226.936 22.6406 227.014C22.5938 227.092 22.5703 227.174 22.5703 227.26C22.5703 227.346 22.6055 227.418 22.6758 227.477C22.75 227.531 22.8594 227.574 23.0039 227.605C23.1523 227.633 23.3359 227.646 23.5547 227.646H24.668C25.3867 227.646 25.9336 227.801 26.3086 228.109C26.6875 228.418 26.877 228.871 26.877 229.469C26.877 230.234 26.5566 230.828 25.916 231.25C25.2793 231.672 24.3633 231.883 23.168 231.883ZM23.2441 230.717C23.6699 230.717 24.0352 230.676 24.3398 230.594C24.6484 230.516 24.8848 230.402 25.0488 230.254C25.2129 230.109 25.2949 229.936 25.2949 229.732C25.2949 229.568 25.2461 229.438 25.1484 229.34C25.0547 229.246 24.9102 229.18 24.7148 229.141C24.5234 229.102 24.2773 229.082 23.9766 229.082H23.0508C22.832 229.082 22.6348 229.117 22.459 229.188C22.2871 229.258 22.1504 229.355 22.0488 229.48C21.9473 229.609 21.8965 229.758 21.8965 229.926C21.8965 230.172 22.0137 230.365 22.248 230.506C22.4863 230.646 22.8184 230.717 23.2441 230.717ZM23.5312 225.748C23.8672 225.748 24.1133 225.645 24.2695 225.438C24.4258 225.23 24.5039 224.949 24.5039 224.594C24.5039 224.199 24.4219 223.904 24.2578 223.709C24.0977 223.51 23.8555 223.41 23.5312 223.41C23.2031 223.41 22.957 223.51 22.793 223.709C22.6289 223.904 22.5469 224.199 22.5469 224.594C22.5469 224.949 22.627 225.23 22.7871 225.438C22.9512 225.645 23.1992 225.748 23.5312 225.748ZM30.7207 222.314C31.5996 222.314 32.2734 222.506 32.7422 222.889C33.2109 223.271 33.4453 223.854 33.4453 224.635V229H32.1973L31.8516 228.109H31.8047C31.6172 228.344 31.4258 228.535 31.2305 228.684C31.0352 228.832 30.8105 228.941 30.5566 229.012C30.3027 229.082 29.9941 229.117 29.6309 229.117C29.2441 229.117 28.8965 229.043 28.5879 228.895C28.2832 228.746 28.043 228.52 27.8672 228.215C27.6914 227.906 27.6035 227.516 27.6035 227.043C27.6035 226.348 27.8477 225.836 28.3359 225.508C28.8242 225.176 29.5566 224.992 30.5332 224.957L31.6699 224.922V224.635C31.6699 224.291 31.5801 224.039 31.4004 223.879C31.2207 223.719 30.9707 223.639 30.6504 223.639C30.334 223.639 30.0234 223.684 29.7188 223.773C29.4141 223.863 29.1094 223.977 28.8047 224.113L28.2129 222.906C28.5605 222.723 28.9492 222.578 29.3789 222.473C29.8125 222.367 30.2598 222.314 30.7207 222.314ZM31.6699 225.965L30.9785 225.988C30.4004 226.004 29.998 226.107 29.7715 226.299C29.5488 226.49 29.4375 226.742 29.4375 227.055C29.4375 227.328 29.5176 227.523 29.6777 227.641C29.8379 227.754 30.0469 227.811 30.3047 227.811C30.6875 227.811 31.0098 227.697 31.2715 227.471C31.5371 227.244 31.6699 226.922 31.6699 226.504V225.965ZM37.3652 229.117C36.6348 229.117 36.0391 228.832 35.5781 228.262C35.1211 227.688 34.8926 226.846 34.8926 225.736C34.8926 224.615 35.125 223.768 35.5898 223.193C36.0547 222.615 36.6621 222.326 37.4121 222.326C37.7246 222.326 38 222.369 38.2383 222.455C38.4766 222.541 38.6816 222.656 38.8535 222.801C39.0293 222.945 39.1777 223.107 39.2988 223.287H39.3574C39.334 223.162 39.3047 222.979 39.2695 222.736C39.2383 222.49 39.2227 222.238 39.2227 221.98V219.883H41.0156V229H39.6445L39.2988 228.15H39.2227C39.1094 228.33 38.9668 228.494 38.7949 228.643C38.627 228.787 38.4258 228.902 38.1914 228.988C37.957 229.074 37.6816 229.117 37.3652 229.117ZM37.9922 227.693C38.4805 227.693 38.8242 227.549 39.0234 227.26C39.2266 226.967 39.334 226.527 39.3457 225.941V225.748C39.3457 225.111 39.248 224.625 39.0527 224.289C38.8574 223.949 38.4941 223.779 37.9629 223.779C37.5684 223.779 37.2598 223.949 37.0371 224.289C36.8145 224.629 36.7031 225.119 36.7031 225.76C36.7031 226.4 36.8145 226.883 37.0371 227.207C37.2637 227.531 37.582 227.693 37.9922 227.693ZM45.5684 222.314C46.4473 222.314 47.1211 222.506 47.5898 222.889C48.0586 223.271 48.293 223.854 48.293 224.635V229H47.0449L46.6992 228.109H46.6523C46.4648 228.344 46.2734 228.535 46.0781 228.684C45.8828 228.832 45.6582 228.941 45.4043 229.012C45.1504 229.082 44.8418 229.117 44.4785 229.117C44.0918 229.117 43.7441 229.043 43.4355 228.895C43.1309 228.746 42.8906 228.52 42.7148 228.215C42.5391 227.906 42.4512 227.516 42.4512 227.043C42.4512 226.348 42.6953 225.836 43.1836 225.508C43.6719 225.176 44.4043 224.992 45.3809 224.957L46.5176 224.922V224.635C46.5176 224.291 46.4277 224.039 46.248 223.879C46.0684 223.719 45.8184 223.639 45.498 223.639C45.1816 223.639 44.8711 223.684 44.5664 223.773C44.2617 223.863 43.957 223.977 43.6523 224.113L43.0605 222.906C43.4082 222.723 43.7969 222.578 44.2266 222.473C44.6602 222.367 45.1074 222.314 45.5684 222.314ZM46.5176 225.965L45.8262 225.988C45.248 226.004 44.8457 226.107 44.6191 226.299C44.3965 226.49 44.2852 226.742 44.2852 227.055C44.2852 227.328 44.3652 227.523 44.5254 227.641C44.6855 227.754 44.8945 227.811 45.1523 227.811C45.5352 227.811 45.8574 227.697 46.1191 227.471C46.3848 227.244 46.5176 226.922 46.5176 226.504V225.965Z" fill="#002E12"/>
<path d="M125.861 265.058C127.037 266.992 128.708 268.577 130.702 269.648C132.83 270.62 135.213 270.885 137.502 270.404C139.23 269.885 140.78 268.897 141.98 267.55C144.248 264.955 146.668 262.497 149.228 260.19C150.451 259.063 151.98 258.323 153.622 258.063C155.882 257.854 158.151 258.353 160.115 259.49" stroke="#EDB328" stroke-width="8"/>
<rect x="99.5" y="295" width="74" height="19" rx="4" fill="#FFB600"/>
<path d="M108.993 302.783C108.959 302.439 108.813 302.172 108.554 301.982C108.295 301.791 107.945 301.696 107.501 301.696C107.2 301.696 106.946 301.739 106.739 301.824C106.531 301.906 106.372 302.021 106.261 302.169C106.153 302.317 106.099 302.484 106.099 302.672C106.094 302.828 106.126 302.964 106.197 303.081C106.271 303.197 106.372 303.298 106.5 303.384C106.628 303.466 106.776 303.538 106.943 303.601C107.111 303.661 107.29 303.712 107.48 303.754L108.264 303.942C108.645 304.027 108.994 304.141 109.312 304.283C109.631 304.425 109.906 304.599 110.139 304.807C110.372 305.014 110.553 305.259 110.68 305.54C110.811 305.821 110.878 306.143 110.881 306.507C110.878 307.041 110.741 307.504 110.472 307.896C110.205 308.286 109.818 308.588 109.312 308.804C108.81 309.017 108.203 309.124 107.493 309.124C106.788 309.124 106.175 309.016 105.652 308.8C105.132 308.584 104.726 308.264 104.433 307.841C104.143 307.415 103.991 306.888 103.977 306.26H105.763C105.783 306.553 105.866 306.797 106.014 306.993C106.165 307.186 106.365 307.332 106.615 307.432C106.868 307.528 107.153 307.577 107.472 307.577C107.784 307.577 108.055 307.531 108.286 307.44C108.518 307.349 108.699 307.223 108.827 307.061C108.955 306.899 109.018 306.713 109.018 306.503C109.018 306.307 108.96 306.142 108.844 306.009C108.73 305.875 108.563 305.761 108.341 305.668C108.122 305.574 107.854 305.489 107.536 305.412L106.585 305.173C105.849 304.994 105.268 304.714 104.842 304.334C104.416 303.953 104.205 303.44 104.207 302.795C104.205 302.267 104.345 301.805 104.629 301.411C104.916 301.016 105.31 300.707 105.81 300.486C106.31 300.264 106.878 300.153 107.514 300.153C108.162 300.153 108.727 300.264 109.21 300.486C109.696 300.707 110.074 301.016 110.344 301.411C110.614 301.805 110.753 302.263 110.761 302.783H108.993ZM117.277 309.107C116.78 309.107 116.33 308.979 115.926 308.723C115.526 308.464 115.207 308.085 114.972 307.585C114.739 307.082 114.622 306.466 114.622 305.736C114.622 304.986 114.743 304.362 114.984 303.865C115.226 303.365 115.547 302.991 115.947 302.744C116.351 302.494 116.793 302.369 117.273 302.369C117.639 302.369 117.945 302.432 118.189 302.557C118.436 302.679 118.635 302.832 118.786 303.017C118.939 303.199 119.055 303.378 119.135 303.554H119.19V300.273H121.001V309H119.212V307.952H119.135C119.05 308.134 118.929 308.314 118.773 308.493C118.619 308.669 118.419 308.815 118.172 308.932C117.928 309.048 117.629 309.107 117.277 309.107ZM117.852 307.662C118.145 307.662 118.392 307.582 118.594 307.423C118.798 307.261 118.955 307.036 119.062 306.746C119.173 306.456 119.229 306.116 119.229 305.727C119.229 305.338 119.175 305 119.067 304.713C118.959 304.426 118.803 304.205 118.598 304.048C118.393 303.892 118.145 303.814 117.852 303.814C117.554 303.814 117.303 303.895 117.098 304.057C116.893 304.219 116.739 304.443 116.634 304.73C116.528 305.017 116.476 305.349 116.476 305.727C116.476 306.108 116.528 306.445 116.634 306.737C116.741 307.027 116.896 307.254 117.098 307.419C117.303 307.581 117.554 307.662 117.852 307.662ZM125.451 309.128C124.789 309.128 124.217 308.987 123.734 308.706C123.254 308.422 122.883 308.027 122.622 307.521C122.36 307.013 122.23 306.423 122.23 305.753C122.23 305.077 122.36 304.486 122.622 303.98C122.883 303.472 123.254 303.077 123.734 302.795C124.217 302.511 124.789 302.369 125.451 302.369C126.113 302.369 126.684 302.511 127.164 302.795C127.647 303.077 128.02 303.472 128.281 303.98C128.542 304.486 128.673 305.077 128.673 305.753C128.673 306.423 128.542 307.013 128.281 307.521C128.02 308.027 127.647 308.422 127.164 308.706C126.684 308.987 126.113 309.128 125.451 309.128ZM125.46 307.722C125.761 307.722 126.012 307.636 126.214 307.466C126.416 307.293 126.568 307.057 126.67 306.759C126.775 306.46 126.828 306.121 126.828 305.74C126.828 305.359 126.775 305.02 126.67 304.722C126.568 304.423 126.416 304.187 126.214 304.014C126.012 303.841 125.761 303.754 125.46 303.754C125.156 303.754 124.9 303.841 124.693 304.014C124.488 304.187 124.333 304.423 124.228 304.722C124.126 305.02 124.075 305.359 124.075 305.74C124.075 306.121 124.126 306.46 124.228 306.759C124.333 307.057 124.488 307.293 124.693 307.466C124.9 307.636 125.156 307.722 125.46 307.722ZM137.399 302.783C137.365 302.439 137.219 302.172 136.96 301.982C136.702 301.791 136.351 301.696 135.908 301.696C135.607 301.696 135.352 301.739 135.145 301.824C134.938 301.906 134.778 302.021 134.668 302.169C134.56 302.317 134.506 302.484 134.506 302.672C134.5 302.828 134.533 302.964 134.604 303.081C134.678 303.197 134.778 303.298 134.906 303.384C135.034 303.466 135.182 303.538 135.349 303.601C135.517 303.661 135.696 303.712 135.886 303.754L136.67 303.942C137.051 304.027 137.401 304.141 137.719 304.283C138.037 304.425 138.313 304.599 138.545 304.807C138.778 305.014 138.959 305.259 139.087 305.54C139.217 305.821 139.284 306.143 139.287 306.507C139.284 307.041 139.148 307.504 138.878 307.896C138.611 308.286 138.224 308.588 137.719 308.804C137.216 309.017 136.609 309.124 135.899 309.124C135.195 309.124 134.581 309.016 134.058 308.8C133.538 308.584 133.132 308.264 132.839 307.841C132.55 307.415 132.398 306.888 132.384 306.26H134.169C134.189 306.553 134.273 306.797 134.42 306.993C134.571 307.186 134.771 307.332 135.021 307.432C135.274 307.528 135.56 307.577 135.878 307.577C136.19 307.577 136.462 307.531 136.692 307.44C136.925 307.349 137.105 307.223 137.233 307.061C137.361 306.899 137.425 306.713 137.425 306.503C137.425 306.307 137.366 306.142 137.25 306.009C137.136 305.875 136.969 305.761 136.747 305.668C136.528 305.574 136.26 305.489 135.942 305.412L134.991 305.173C134.256 304.994 133.675 304.714 133.249 304.334C132.822 303.953 132.611 303.44 132.614 302.795C132.611 302.267 132.751 301.805 133.036 301.411C133.322 301.016 133.716 300.707 134.216 300.486C134.716 300.264 135.284 300.153 135.92 300.153C136.568 300.153 137.134 300.264 137.616 300.486C138.102 300.707 138.48 301.016 138.75 301.411C139.02 301.805 139.159 302.263 139.168 302.783H137.399ZM143.477 309.128C142.804 309.128 142.224 308.991 141.738 308.719C141.255 308.443 140.883 308.054 140.622 307.551C140.36 307.045 140.23 306.447 140.23 305.757C140.23 305.084 140.36 304.493 140.622 303.984C140.883 303.476 141.251 303.08 141.725 302.795C142.203 302.511 142.762 302.369 143.404 302.369C143.836 302.369 144.238 302.439 144.61 302.578C144.985 302.714 145.312 302.92 145.591 303.196C145.872 303.472 146.091 303.818 146.247 304.236C146.403 304.651 146.481 305.136 146.481 305.693V306.192H140.954V305.067H144.772C144.772 304.805 144.716 304.574 144.602 304.372C144.488 304.17 144.331 304.013 144.129 303.899C143.93 303.783 143.699 303.724 143.434 303.724C143.159 303.724 142.914 303.788 142.701 303.916C142.491 304.041 142.326 304.21 142.207 304.423C142.088 304.634 142.027 304.868 142.024 305.126V306.196C142.024 306.52 142.083 306.8 142.203 307.036C142.325 307.271 142.497 307.453 142.718 307.581C142.94 307.709 143.203 307.773 143.507 307.773C143.708 307.773 143.893 307.744 144.061 307.688C144.228 307.631 144.372 307.545 144.491 307.432C144.61 307.318 144.701 307.179 144.764 307.014L146.443 307.125C146.358 307.528 146.183 307.881 145.919 308.182C145.657 308.48 145.319 308.713 144.904 308.881C144.493 309.045 144.017 309.128 143.477 309.128ZM149.481 305.216V309H147.666V302.455H149.396V303.609H149.473C149.618 303.229 149.86 302.928 150.201 302.706C150.542 302.482 150.956 302.369 151.441 302.369C151.896 302.369 152.292 302.469 152.63 302.668C152.968 302.866 153.231 303.151 153.419 303.52C153.606 303.886 153.7 304.324 153.7 304.832V309H151.885V305.156C151.887 304.756 151.785 304.443 151.578 304.219C151.37 303.991 151.085 303.878 150.721 303.878C150.477 303.878 150.261 303.93 150.074 304.036C149.889 304.141 149.744 304.294 149.639 304.496C149.537 304.695 149.484 304.935 149.481 305.216ZM156.946 305.216V309H155.131V302.455H156.861V303.609H156.938C157.082 303.229 157.325 302.928 157.666 302.706C158.007 302.482 158.42 302.369 158.906 302.369C159.361 302.369 159.757 302.469 160.095 302.668C160.433 302.866 160.696 303.151 160.884 303.52C161.071 303.886 161.165 304.324 161.165 304.832V309H159.349V305.156C159.352 304.756 159.25 304.443 159.043 304.219C158.835 303.991 158.55 303.878 158.186 303.878C157.942 303.878 157.726 303.93 157.538 304.036C157.354 304.141 157.209 304.294 157.104 304.496C157.001 304.695 156.949 304.935 156.946 305.216ZM164.462 309.124C164.044 309.124 163.672 309.051 163.346 308.906C163.019 308.759 162.76 308.541 162.57 308.254C162.382 307.964 162.289 307.604 162.289 307.172C162.289 306.808 162.355 306.503 162.489 306.256C162.623 306.009 162.804 305.81 163.034 305.659C163.265 305.509 163.526 305.395 163.819 305.318C164.114 305.241 164.424 305.188 164.748 305.156C165.128 305.116 165.435 305.08 165.668 305.045C165.901 305.009 166.07 304.955 166.175 304.884C166.28 304.812 166.333 304.707 166.333 304.568V304.543C166.333 304.273 166.248 304.064 166.077 303.916C165.909 303.768 165.671 303.695 165.361 303.695C165.034 303.695 164.775 303.767 164.581 303.912C164.388 304.054 164.26 304.233 164.198 304.449L162.519 304.312C162.604 303.915 162.772 303.571 163.022 303.281C163.272 302.989 163.594 302.764 163.989 302.608C164.387 302.449 164.847 302.369 165.37 302.369C165.733 302.369 166.081 302.412 166.414 302.497C166.749 302.582 167.046 302.714 167.304 302.893C167.566 303.072 167.772 303.303 167.922 303.584C168.073 303.862 168.148 304.196 168.148 304.585V309H166.426V308.092H166.375C166.27 308.297 166.13 308.477 165.953 308.634C165.777 308.787 165.566 308.908 165.319 308.996C165.071 309.081 164.786 309.124 164.462 309.124ZM164.982 307.871C165.249 307.871 165.485 307.818 165.689 307.713C165.894 307.605 166.054 307.46 166.171 307.278C166.287 307.097 166.346 306.891 166.346 306.661V305.966C166.289 306.003 166.211 306.037 166.111 306.068C166.015 306.097 165.905 306.124 165.783 306.149C165.661 306.172 165.539 306.193 165.417 306.213C165.294 306.23 165.184 306.246 165.084 306.26C164.871 306.291 164.685 306.341 164.526 306.409C164.367 306.477 164.243 306.57 164.155 306.686C164.067 306.8 164.023 306.942 164.023 307.112C164.023 307.359 164.113 307.548 164.292 307.679C164.473 307.807 164.703 307.871 164.982 307.871Z" fill="#002E12"/>
<path d="M124 38V9.54199H106.125" stroke="#002E12"/>
<path d="M67 77.5H98.7129" stroke="#002E12"/>
<path d="M60 218H111.263" stroke="#002E12"/>
<path d="M136.5 295V270.122" stroke="#FFB600"/>
<path d="M236.273 266.643H189" stroke="#002E12"/>
<path d="M276.999 192.5H234.041" stroke="#002E12"/>
<path d="M160.113 167.5H134.84V157.659" stroke="#002E12"/>
<path d="M277 125.5H128.779V104.638" stroke="#002E12"/>
<path d="M291 84.5001H160.693V69.2061" stroke="#002E12"/>
</svg>
